<svg version="1.1" xmlns="http://www.w3.org/2000/svg" xmlns:xlink="http://www.w3.org/1999/xlink" width="322" height="307"><defs><clipPath id="nUCpeSwSRgzP"><path fill="none" stroke="none" d=" M 0 0 L 322 0 L 322 307 L 0 307 L 0 0 Z"/></clipPath></defs><g transform="scale(1,1)" clip-path="url(#nUCpeSwSRgzP)"><g><rect fill="rgb(255,255,255)" stroke="none" x="0" y="0" width="322" height="307" fill-opacity="1"/><path fill="none" stroke="rgb(192,192,192)" paint-order="fill stroke markers" d=" M 99.5 0.5 L 99.5 307.5 M 180.5 0.5 L 180.5 307.5 M 261.5 0.5 L 261.5 307.5" stroke-opacity="1" stroke-linecap="round" stroke-linejoin="round" stroke-miterlimit="10"/><path fill="none" stroke="rgb(192,192,192)" paint-order="fill stroke markers" d=" M 2.5 0.5 L 2.5 307.5 M 34.5 0.5 L 34.5 307.5 M 50.5 0.5 L 50.5 307.5 M 67.5 0.5 L 67.5 307.5 M 83.5 0.5 L 83.5 307.5 M 115.5 0.5 L 115.5 307.5 M 131.5 0.5 L 131.5 307.5 M 147.5 0.5 L 147.5 307.5 M 164.5 0.5 L 164.5 307.5 M 196.5 0.5 L 196.5 307.5 M 212.5 0.5 L 212.5 307.5 M 228.5 0.5 L 228.5 307.5 M 244.5 0.5 L 244.5 307.5 M 277.5 0.5 L 277.5 307.5 M 293.5 0.5 L 293.5 307.5 M 309.5 0.5 L 309.5 307.5" stroke-opacity="0.23529411764705882" stroke-linecap="round" stroke-linejoin="round" stroke-miterlimit="10"/><path fill="none" stroke="rgb(192,192,192)" paint-order="fill stroke markers" d=" M 0.5 34.5 L 322.5 34.5 M 0.5 34.5 L 322.5 34.5 M 0.5 115.5 L 322.5 115.5 M 0.5 196.5 L 322.5 196.5" stroke-opacity="1" stroke-linecap="round" stroke-linejoin="round" stroke-miterlimit="10"/><path fill="none" stroke="rgb(192,192,192)" paint-order="fill stroke markers" d=" M 0.5 2.5 L 322.5 2.5 M 0.5 2.5 L 322.5 2.5 M 0.5 18.5 L 322.5 18.5 M 0.5 50.5 L 322.5 50.5 M 0.5 67.5 L 322.5 67.5 M 0.5 83.5 L 322.5 83.5 M 0.5 99.5 L 322.5 99.5 M 0.5 131.5 L 322.5 131.5 M 0.5 148.5 L 322.5 148.5 M 0.5 164.5 L 322.5 164.5 M 0.5 180.5 L 322.5 180.5 M 0.5 212.5 L 322.5 212.5 M 0.5 228.5 L 322.5 228.5 M 0.5 245.5 L 322.5 245.5 M 0.5 261.5 L 322.5 261.5 M 0.5 293.5 L 322.5 293.5" stroke-opacity="0.23529411764705882" stroke-linecap="round" stroke-linejoin="round" stroke-miterlimit="10"/><path fill="none" stroke="rgb(0,0,0)" paint-order="fill stroke markers" d=" M 18.5 2.5 L 18.5 307.5" stroke-opacity="1" stroke-miterlimit="10"/><path fill="none" stroke="rgb(0,0,0)" paint-order="fill stroke markers" d=" M 18.5 1.5 L 14.5 5.5" stroke-opacity="1" stroke-miterlimit="10"/><path fill="none" stroke="rgb(0,0,0)" paint-order="fill stroke markers" d=" M 18.5 1.5 L 22.5 5.5" stroke-opacity="1" stroke-miterlimit="10"/><path fill="none" stroke="rgb(0,0,0)" paint-order="fill stroke markers" d=" M 0.5 277.5 L 320.5 277.5" stroke-opacity="1" stroke-miterlimit="10"/><path fill="none" stroke="rgb(0,0,0)" paint-order="fill stroke markers" d=" M 321.5 277.5 L 317.5 273.5" stroke-opacity="1" stroke-miterlimit="10"/><path fill="none" stroke="rgb(0,0,0)" paint-order="fill stroke markers" d=" M 321.5 277.5 L 317.5 281.5" stroke-opacity="1" stroke-miterlimit="10"/><text fill="rgb(0,0,0)" stroke="none" font-family="geogebra-sans-serif, sans-serif" font-size="12px" font-style="normal" font-weight="normal" text-decoration="normal" x="97" y="293" text-anchor="start" dominant-baseline="alphabetic" fill-opacity="1">2</text><text fill="none" stroke="rgb(255,255,255)" font-family="geogebra-sans-serif, sans-serif" font-size="12px" font-style="normal" font-weight="normal" text-decoration="normal" x="97" y="293" text-anchor="start" dominant-baseline="alphabetic" stroke-opacity="1" stroke-linejoin="bevel" stroke-miterlimit="10" stroke-width="3">2</text><text fill="rgb(0,0,0)" stroke="none" font-family="geogebra-sans-serif, sans-serif" font-size="12px" font-style="normal" font-weight="normal" text-decoration="normal" x="97" y="293" text-anchor="start" dominant-baseline="alphabetic" fill-opacity="1">2</text><text fill="rgb(0,0,0)" stroke="none" font-family="geogebra-sans-serif, sans-serif" font-size="12px" font-style="normal" font-weight="normal" text-decoration="normal" x="178" y="293" text-anchor="start" dominant-baseline="alphabetic" fill-opacity="1">4</text><text fill="none" stroke="rgb(255,255,255)" font-family="geogebra-sans-serif, sans-serif" font-size="12px" font-style="normal" font-weight="normal" text-decoration="normal" x="178" y="293" text-anchor="start" dominant-baseline="alphabetic" stroke-opacity="1" stroke-linejoin="bevel" stroke-miterlimit="10" stroke-width="3">4</text><text fill="rgb(0,0,0)" stroke="none" font-family="geogebra-sans-serif, sans-serif" font-size="12px" font-style="normal" font-weight="normal" text-decoration="normal" x="178" y="293" text-anchor="start" dominant-baseline="alphabetic" fill-opacity="1">4</text><text fill="rgb(0,0,0)" stroke="none" font-family="geogebra-sans-serif, sans-serif" font-size="12px" font-style="normal" font-weight="normal" text-decoration="normal" x="259" y="293" text-anchor="start" dominant-baseline="alphabetic" fill-opacity="1">6</text><text fill="none" stroke="rgb(255,255,255)" font-family="geogebra-sans-serif, sans-serif" font-size="12px" font-style="normal" font-weight="normal" text-decoration="normal" x="259" y="293" text-anchor="start" dominant-baseline="alphabetic" stroke-opacity="1" stroke-linejoin="bevel" stroke-miterlimit="10" stroke-width="3">6</text><text fill="rgb(0,0,0)" stroke="none" font-family="geogebra-sans-serif, sans-serif" font-size="12px" font-style="normal" font-weight="normal" text-decoration="normal" x="259" y="293" text-anchor="start" dominant-baseline="alphabetic" fill-opacity="1">6</text><text fill="rgb(0,0,0)" stroke="none" font-family="geogebra-sans-serif, sans-serif" font-size="12px" font-style="normal" font-weight="normal" text-decoration="normal" x="4" y="201" text-anchor="start" dominant-baseline="alphabetic" fill-opacity="1">2</text><text fill="none" stroke="rgb(255,255,255)" font-family="geogebra-sans-serif, sans-serif" font-size="12px" font-style="normal" font-weight="normal" text-decoration="normal" x="4" y="201" text-anchor="start" dominant-baseline="alphabetic" stroke-opacity="1" stroke-linejoin="bevel" stroke-miterlimit="10" stroke-width="3">2</text><text fill="rgb(0,0,0)" stroke="none" font-family="geogebra-sans-serif, sans-serif" font-size="12px" font-style="normal" font-weight="normal" text-decoration="normal" x="4" y="201" text-anchor="start" dominant-baseline="alphabetic" fill-opacity="1">2</text><text fill="rgb(0,0,0)" stroke="none" font-family="geogebra-sans-serif, sans-serif" font-size="12px" font-style="normal" font-weight="normal" text-decoration="normal" x="4" y="120" text-anchor="start" dominant-baseline="alphabetic" fill-opacity="1">4</text><text fill="none" stroke="rgb(255,255,255)" font-family="geogebra-sans-serif, sans-serif" font-size="12px" font-style="normal" font-weight="normal" text-decoration="normal" x="4" y="120" text-anchor="start" dominant-baseline="alphabetic" stroke-opacity="1" stroke-linejoin="bevel" stroke-miterlimit="10" stroke-width="3">4</text><text fill="rgb(0,0,0)" stroke="none" font-family="geogebra-sans-serif, sans-serif" font-size="12px" font-style="normal" font-weight="normal" text-decoration="normal" x="4" y="120" text-anchor="start" dominant-baseline="alphabetic" fill-opacity="1">4</text><text fill="rgb(0,0,0)" stroke="none" font-family="geogebra-sans-serif, sans-serif" font-size="12px" font-style="normal" font-weight="normal" text-decoration="normal" x="4" y="39" text-anchor="start" dominant-baseline="alphabetic" fill-opacity="1">6</text><text fill="none" stroke="rgb(255,255,255)" font-family="geogebra-sans-serif, sans-serif" font-size="12px" font-style="normal" font-weight="normal" text-decoration="normal" x="4" y="39" text-anchor="start" dominant-baseline="alphabetic" stroke-opacity="1" stroke-linejoin="bevel" stroke-miterlimit="10" stroke-width="3">6</text><text fill="rgb(0,0,0)" stroke="none" font-family="geogebra-sans-serif, sans-serif" font-size="12px" font-style="normal" font-weight="normal" text-decoration="normal" x="4" y="39" text-anchor="start" dominant-baseline="alphabetic" fill-opacity="1">6</text><text fill="rgb(0,0,0)" stroke="none" font-family="geogebra-sans-serif, sans-serif" font-size="12px" font-style="normal" font-weight="normal" text-decoration="normal" x="4" y="293" text-anchor="start" dominant-baseline="alphabetic" fill-opacity="1">0</text><text fill="none" stroke="rgb(255,255,255)" font-family="geogebra-sans-serif, sans-serif" font-size="12px" font-style="normal" font-weight="normal" text-decoration="normal" x="4" y="293" text-anchor="start" dominant-baseline="alphabetic" stroke-opacity="1" stroke-linejoin="bevel" stroke-miterlimit="10" stroke-width="3">0</text><text fill="rgb(0,0,0)" stroke="none" font-family="geogebra-sans-serif, sans-serif" font-size="12px" font-style="normal" font-weight="normal" text-decoration="normal" x="4" y="293" text-anchor="start" dominant-baseline="alphabetic" fill-opacity="1">0</text><path fill="none" stroke="rgb(0,100,0)" paint-order="fill stroke markers" d=" M 0 310.702196841985 L 0 310.702196841985 L 1.0000000000000036 308.902196841985 L 1.0000000000000036 308.902196841985 L 2.0000000000000036 307.102196841985 L 2.0000000000000036 307.102196841985 L 3.0000000000000036 305.30219684198494 L 3.0000000000000036 305.30219684198494 L 4.000000000000005 303.502196841985 L 4.000000000000005 303.502196841985 L 5.000000000000005 301.7021968419849 L 5.000000000000005 301.7021968419849 L 6.000000000000007 299.90219684198496 L 6.000000000000007 299.90219684198496 L 7.000000000000007 298.1021968419849 L 7.000000000000007 298.1021968419849 L 8.000000000000009 296.3021968419849 L 8.000000000000009 296.3021968419849 L 9.000000000000009 294.50219684198487 L 9.000000000000009 294.50219684198487 L 10.000000000000009 292.7021968419849 L 10.000000000000009 292.7021968419849 L 11.000000000000009 290.9021968419849 L 11.000000000000009 290.9021968419849 L 12.000000000000007 289.1021968419849 L 12.000000000000007 289.1021968419849 L 13.000000000000007 287.3021968419849 L 13.000000000000007 287.3021968419849 L 14.000000000000007 285.50219684198487 L 14.000000000000007 285.50219684198487 L 15.000000000000007 283.70219684198486 L 15.000000000000007 283.70219684198486 L 16.000000000000007 281.90219684198485 L 16.000000000000007 281.90219684198485 L 17.000000000000007 280.10219684198483 L 17.000000000000007 280.10219684198483 L 18.000000000000007 278.3021968419848 L 18.000000000000007 278.3021968419848 L 19.000000000000007 276.5021968419848 L 19.000000000000007 276.5021968419848 L 20.000000000000007 274.7021968419848 L 20.000000000000007 274.7021968419848 L 21.000000000000007 272.9021968419848 L 21.000000000000007 272.9021968419848 L 22.000000000000007 271.1021968419848 L 22.000000000000007 271.1021968419848 L 23.000000000000007 269.30219684198477 L 23.000000000000007 269.30219684198477 L 24.000000000000007 267.50219684198476 L 24.000000000000007 267.50219684198476 L 25.000000000000007 265.70219684198474 L 25.000000000000007 265.70219684198474 L 26.000000000000007 263.90219684198473 L 26.000000000000007 263.90219684198473 L 27.000000000000007 262.1021968419847 L 27.000000000000007 262.1021968419847 L 28.000000000000007 260.3021968419847 L 28.000000000000007 260.3021968419847 L 29.000000000000007 258.5021968419847 L 29.000000000000007 258.5021968419847 L 30.000000000000007 256.7021968419847 L 30.000000000000007 256.7021968419847 L 31.000000000000007 254.90219684198468 L 31.000000000000007 254.90219684198468 L 32.000000000000014 253.10219684198466 L 32.000000000000014 253.10219684198466 L 33.000000000000014 251.30219684198465 L 33.000000000000014 251.30219684198465 L 34.000000000000014 249.50219684198464 L 34.000000000000014 249.50219684198464 L 35.000000000000014 247.70219684198463 L 35.000000000000014 247.70219684198463 L 36.000000000000014 245.90219684198462 L 36.000000000000014 245.90219684198462 L 37.000000000000014 244.1021968419846 L 37.000000000000014 244.1021968419846 L 38.000000000000014 242.3021968419846 L 38.000000000000014 242.3021968419846 L 39.000000000000014 240.50219684198458 L 39.000000000000014 240.50219684198458 L 40.000000000000014 238.70219684198457 L 40.000000000000014 238.70219684198457 L 41.000000000000014 236.90219684198456 L 41.000000000000014 236.90219684198456 L 42.00000000000002 235.10219684198455 L 42.00000000000002 235.10219684198455 L 43.00000000000002 233.30219684198454 L 43.00000000000002 233.30219684198454 L 44.00000000000002 231.50219684198453 L 44.00000000000002 231.50219684198453 L 45.00000000000002 229.70219684198452 L 45.00000000000002 229.70219684198452 L 46.00000000000003 227.9021968419845 L 46.00000000000003 227.9021968419845 L 47.00000000000003 226.10219684198447 L 47.00000000000003 226.10219684198447 L 48.00000000000003 224.30219684198448 L 48.00000000000003 224.30219684198448 L 49.00000000000003 222.50219684198447 L 49.00000000000003 222.50219684198447 L 50.00000000000003 220.70219684198446 L 50.00000000000003 220.70219684198446 L 51.00000000000003 218.90219684198445 L 51.00000000000003 218.90219684198445 L 52.00000000000003 217.1021968419844 L 52.00000000000003 217.1021968419844 L 53.00000000000003 215.30219684198443 L 53.00000000000003 215.30219684198443 L 54.00000000000003 213.5021968419844 L 54.00000000000003 213.5021968419844 L 55.000000000000036 211.7021968419844 L 55.000000000000036 211.7021968419844 L 56.000000000000036 209.9021968419844 L 56.000000000000036 209.9021968419844 L 57.000000000000036 208.10219684198435 L 57.000000000000036 208.10219684198435 L 58.000000000000036 206.30219684198437 L 58.000000000000036 206.30219684198437 L 59.000000000000036 204.50219684198433 L 59.000000000000036 204.50219684198433 L 60.000000000000036 202.70219684198435 L 60.000000000000036 202.70219684198435 L 61.000000000000036 200.9021968419843 L 61.000000000000036 200.9021968419843 L 62.00000000000004 199.1021968419843 L 62.00000000000004 199.1021968419843 L 63.00000000000004 197.3021968419843 L 63.00000000000004 197.3021968419843 L 64.00000000000004 195.5021968419843 L 64.00000000000004 195.5021968419843 L 65.00000000000004 193.70219684198426 L 65.00000000000004 193.70219684198426 L 66.00000000000004 191.90219684198425 L 66.00000000000004 191.90219684198425 L 67.00000000000004 190.10219684198427 L 67.00000000000004 190.10219684198427 L 68.00000000000004 188.30219684198423 L 68.00000000000004 188.30219684198423 L 69.00000000000006 186.50219684198422 L 69.00000000000006 186.50219684198422 L 70.00000000000006 184.7021968419842 L 70.00000000000006 184.7021968419842 L 71.00000000000006 182.90219684198416 L 71.00000000000006 182.90219684198416 L 72.00000000000006 181.10219684198418 L 72.00000000000006 181.10219684198418 L 73.00000000000006 179.30219684198417 L 73.00000000000006 179.30219684198417 L 74.00000000000006 177.50219684198416 L 74.00000000000006 177.50219684198416 L 75.00000000000006 175.70219684198415 L 75.00000000000006 175.70219684198415 L 76.00000000000006 173.90219684198414 L 76.00000000000006 173.90219684198414 L 77.00000000000006 172.10219684198412 L 77.00000000000006 172.10219684198412 L 78.00000000000006 170.30219684198408 L 78.00000000000006 170.30219684198408 L 79.00000000000006 168.5021968419841 L 79.00000000000006 168.5021968419841 L 80.00000000000006 166.7021968419841 L 80.00000000000006 166.7021968419841 L 81.00000000000006 164.90219684198405 L 81.00000000000006 164.90219684198405 L 82.00000000000006 163.10219684198404 L 82.00000000000006 163.10219684198404 L 83.00000000000006 161.30219684198406 L 83.00000000000006 161.30219684198406 L 84.00000000000006 159.50219684198404 L 84.00000000000006 159.50219684198404 L 85.00000000000006 157.702196841984 L 85.00000000000006 157.702196841984 L 86.00000000000006 155.90219684198402 L 86.00000000000006 155.90219684198402 L 87.00000000000007 154.102196841984 L 87.00000000000007 154.102196841984 L 88.00000000000007 152.30219684198397 L 88.00000000000007 152.30219684198397 L 89.00000000000007 150.50219684198396 L 89.00000000000007 150.50219684198396 L 90.00000000000007 148.70219684198398 L 90.00000000000007 148.70219684198398 L 91.00000000000007 146.90219684198394 L 91.00000000000007 146.90219684198394 L 92.00000000000007 145.10219684198395 L 92.00000000000007 145.10219684198395 L 93.00000000000007 143.30219684198394 L 93.00000000000007 143.30219684198394 L 94.00000000000007 141.50219684198393 L 94.00000000000007 141.50219684198393 L 95.00000000000007 139.7021968419839 L 95.00000000000007 139.7021968419839 L 96.00000000000007 137.9021968419839 L 96.00000000000007 137.9021968419839 L 97.00000000000007 136.1021968419839 L 97.00000000000007 136.1021968419839 L 98.00000000000007 134.30219684198386 L 98.00000000000007 134.30219684198386 L 99.00000000000007 132.50219684198385 L 99.00000000000007 132.50219684198385 L 100.00000000000007 130.70219684198386 L 100.00000000000007 130.70219684198386 L 101.00000000000006 128.90219684198385 L 101.00000000000006 128.90219684198385 L 102.00000000000006 127.10219684198387 L 102.00000000000006 127.10219684198387 L 103.00000000000004 125.30219684198386 L 103.00000000000004 125.30219684198386 L 104.00000000000004 123.50219684198387 L 104.00000000000004 123.50219684198387 L 105.00000000000003 121.70219684198389 L 105.00000000000003 121.70219684198389 L 106.00000000000001 119.90219684198388 L 106.00000000000001 119.90219684198388 L 107.00000000000001 118.1021968419839 L 107.00000000000001 118.1021968419839 L 108 116.30219684198389 L 108 116.30219684198389 L 109 114.50219684198387 L 109 114.50219684198387 L 109.99999999999999 112.70219684198389 L 109.99999999999999 112.70219684198389 L 110.99999999999999 110.90219684198391 L 110.99999999999999 110.90219684198391 L 111.99999999999997 109.10219684198393 L 111.99999999999997 109.10219684198393 L 112.99999999999997 107.30219684198394 L 112.99999999999997 107.30219684198394 L 113.99999999999996 105.5021968419839 L 113.99999999999996 105.5021968419839 L 114.99999999999994 103.70219684198392 L 114.99999999999994 103.70219684198392 L 115.99999999999994 101.90219684198394 L 115.99999999999994 101.90219684198394 L 116.99999999999993 100.10219684198393 L 116.99999999999993 100.10219684198393 L 117.99999999999993 98.30219684198394 L 117.99999999999993 98.30219684198394 L 118.99999999999991 96.50219684198393 L 118.99999999999991 96.50219684198393 L 119.99999999999991 94.70219684198395 L 119.99999999999991 94.70219684198395 L 120.9999999999999 92.90219684198394 L 120.9999999999999 92.90219684198394 L 121.99999999999989 91.10219684198395 L 121.99999999999989 91.10219684198395 L 122.99999999999989 89.30219684198397 L 122.99999999999989 89.30219684198397 L 123.99999999999987 87.50219684198396 L 123.99999999999987 87.50219684198396 L 124.99999999999987 85.70219684198395 L 124.99999999999987 85.70219684198395 L 125.99999999999986 83.90219684198397 L 125.99999999999986 83.90219684198397 L 126.99999999999986 82.10219684198398 L 126.99999999999986 82.10219684198398 L 127.99999999999984 80.302196841984 L 127.99999999999984 80.302196841984 L 128.99999999999983 78.50219684198396 L 128.99999999999983 78.50219684198396 L 129.99999999999983 76.70219684198398 L 129.99999999999983 76.70219684198398 L 130.99999999999983 74.902196841984 L 130.99999999999983 74.902196841984 L 131.99999999999983 73.10219684198401 L 131.99999999999983 73.10219684198401 L 132.9999999999998 71.30219684198403 L 132.9999999999998 71.30219684198403 L 133.9999999999998 69.50219684198399 L 133.9999999999998 69.50219684198399 L 134.99999999999977 67.702196841984 L 134.99999999999977 67.702196841984 L 135.99999999999977 65.90219684198402 L 135.99999999999977 65.90219684198402 L 136.99999999999977 64.10219684198401 L 136.99999999999977 64.10219684198401 L 137.99999999999977 62.30219684198403 L 137.99999999999977 62.30219684198403 L 138.99999999999977 60.502196841984016 L 138.99999999999977 60.502196841984016 L 139.99999999999974 58.70219684198403 L 139.99999999999974 58.70219684198403 L 140.99999999999974 56.90219684198402 L 140.99999999999974 56.90219684198402 L 141.99999999999972 55.10219684198404 L 141.99999999999972 55.10219684198404 L 142.99999999999972 53.302196841984056 L 142.99999999999972 53.302196841984056 L 143.99999999999972 51.502196841984045 L 143.99999999999972 51.502196841984045 L 144.99999999999972 49.70219684198403 L 144.99999999999972 49.70219684198403 L 145.99999999999972 47.90219684198405 L 145.99999999999972 47.90219684198405 L 146.99999999999972 46.10219684198407 L 146.99999999999972 46.10219684198407 L 147.99999999999966 44.302196841984085 L 147.99999999999966 44.302196841984085 L 148.99999999999966 42.502196841984045 L 148.99999999999966 42.502196841984045 L 149.99999999999966 40.70219684198406 L 149.99999999999966 40.70219684198406 L 150.99999999999966 38.90219684198408 L 150.99999999999966 38.90219684198408 L 151.99999999999966 37.102196841984096 L 151.99999999999966 37.102196841984096 L 152.99999999999966 35.30219684198411 L 152.99999999999966 35.30219684198411 L 153.99999999999966 33.50219684198407 L 153.99999999999966 33.50219684198407 L 154.9999999999996 31.70219684198409 L 154.9999999999996 31.70219684198409 L 155.9999999999996 29.902196841984107 L 155.9999999999996 29.902196841984107 L 156.9999999999996 28.102196841984096 L 156.9999999999996 28.102196841984096 L 157.9999999999996 26.302196841984113 L 157.9999999999996 26.302196841984113 L 158.9999999999996 24.5021968419841 L 158.9999999999996 24.5021968419841 L 159.9999999999996 22.70219684198412 L 159.9999999999996 22.70219684198412 L 160.9999999999996 20.902196841984107 L 160.9999999999996 20.902196841984107 L 161.99999999999955 19.102196841984153 L 161.99999999999955 19.102196841984153 L 162.99999999999955 17.30219684198414 L 162.99999999999955 17.30219684198414 L 163.99999999999955 15.50219684198413 L 163.99999999999955 15.50219684198413 L 164.99999999999955 13.702196841984119 L 164.99999999999955 13.702196841984119 L 165.99999999999955 11.902196841984164 L 165.99999999999955 11.902196841984164 L 166.99999999999955 10.102196841984153 L 166.99999999999955 10.102196841984153 L 167.99999999999955 8.302196841984141 L 167.99999999999955 8.302196841984141 L 168.99999999999955 6.50219684198413 L 168.99999999999955 6.50219684198413 L 169.9999999999995 4.7021968419841755 L 169.9999999999995 4.7021968419841755 L 170.9999999999995 2.902196841984164 L 170.9999999999995 2.902196841984164 L 171.9999999999995 1.1021968419841528 L 171.9999999999995 1.1021968419841528 L 172.9999999999995 -0.6978031580158017 L 172.9999999999995 -0.6978031580158017 L 173.9999999999995 -2.497803158015813 L 173.9999999999995 -2.497803158015813 L 174.9999999999995 -4.2978031580158245 L 174.9999999999995 -4.2978031580158245 L 175.9999999999995 -6.097803158015836 L 175.9999999999995 -6.097803158015836 L 176.99999999999943 -7.89780315801579 L 176.99999999999943 -7.89780315801579 L 177.99999999999943 -9.697803158015802 L 177.99999999999943 -9.697803158015802 L 178.99999999999943 -11.497803158015813 L 178.99999999999943 -11.497803158015813 L 179.99999999999943 -13.297803158015824 L 179.99999999999943 -13.297803158015824 L 180.99999999999943 -15.097803158015779 L 180.99999999999943 -15.097803158015779 L 181.99999999999943 -16.89780315801579 L 181.99999999999943 -16.89780315801579 L 182.99999999999943 -18.697803158015745 L 182.99999999999943 -18.697803158015745 L 183.99999999999937 -20.497803158015813 L 183.99999999999937 -20.497803158015813 L 184.99999999999937 -22.297803158015768 L 184.99999999999937 -22.297803158015768 L 185.99999999999937 -24.09780315801578 L 185.99999999999937 -24.09780315801578 L 186.99999999999937 -25.897803158015734 L 186.99999999999937 -25.897803158015734 L 187.99999999999937 -27.697803158015745 L 187.99999999999937 -27.697803158015745 L 188.99999999999937 -29.497803158015756 L 188.99999999999937 -29.497803158015756 L 189.99999999999937 -31.297803158015768 L 189.99999999999937 -31.297803158015768 L 190.99999999999932 -33.09780315801578 L 190.99999999999932 -33.09780315801578 L 191.99999999999932 -34.89780315801573 L 191.99999999999932 -34.89780315801573 L 192.99999999999932 -36.697803158015745 L 192.99999999999932 -36.697803158015745 L 193.99999999999932 -38.497803158015756 L 193.99999999999932 -38.497803158015756 L 194.99999999999932 -40.29780315801577 L 194.99999999999932 -40.29780315801577 L 195.99999999999932 -42.09780315801572 L 195.99999999999932 -42.09780315801572 L 196.99999999999932 -43.89780315801573 L 196.99999999999932 -43.89780315801573 L 197.99999999999926 -45.69780315801569 L 197.99999999999926 -45.69780315801569 L 198.99999999999926 -47.497803158015756 L 198.99999999999926 -47.497803158015756 L 199.99999999999926 -49.29780315801571 L 199.99999999999926 -49.29780315801571 L 200.99999999999926 -51.09780315801572 L 200.99999999999926 -51.09780315801572 L 201.99999999999926 -52.89780315801568 L 201.99999999999926 -52.89780315801568 L 202.99999999999926 -54.69780315801569 L 202.99999999999926 -54.69780315801569 L 203.99999999999926 -56.4978031580157 L 203.99999999999926 -56.4978031580157 L 204.9999999999992 -58.297803158015654 L 204.9999999999992 -58.297803158015654 L 205.9999999999992 -60.09780315801572 L 205.9999999999992 -60.09780315801572 L 206.9999999999992 -61.89780315801573 L 206.9999999999992 -61.89780315801573 L 207.9999999999992 -63.69780315801569 L 207.9999999999992 -63.69780315801569 L 208.9999999999992 -65.4978031580157 L 208.9999999999992 -65.4978031580157 L 209.9999999999992 -67.29780315801565 L 209.9999999999992 -67.29780315801565 L 210.9999999999992 -69.09780315801567 L 210.9999999999992 -69.09780315801567 L 211.99999999999915 -70.89780315801568 L 211.99999999999915 -70.89780315801568 L 212.99999999999915 -72.69780315801563 L 212.99999999999915 -72.69780315801563 L 213.99999999999915 -74.49780315801564 L 213.99999999999915 -74.49780315801564 L 214.99999999999915 -76.2978031580156 L 214.99999999999915 -76.2978031580156 L 215.99999999999915 -78.09780315801567 L 215.99999999999915 -78.09780315801567 L 216.99999999999915 -79.89780315801568 L 216.99999999999915 -79.89780315801568 L 217.99999999999915 -81.69780315801563 L 217.99999999999915 -81.69780315801563 L 218.9999999999991 -83.49780315801564 L 218.9999999999991 -83.49780315801564 L 219.9999999999991 -85.29780315801565 L 219.9999999999991 -85.29780315801565 L 220.9999999999991 -87.09780315801561 L 220.9999999999991 -87.09780315801561 L 221.9999999999991 -88.89780315801562 L 221.9999999999991 -88.89780315801562 L 222.9999999999991 -90.69780315801557 L 222.9999999999991 -90.69780315801557 L 223.9999999999991 -92.49780315801559 L 223.9999999999991 -92.49780315801559 L 224.9999999999991 -94.2978031580156 L 224.9999999999991 -94.2978031580156 L 225.99999999999903 -96.09780315801567 L 225.99999999999903 -96.09780315801567 L 226.99999999999903 -97.89780315801562 L 226.99999999999903 -97.89780315801562 L 227.99999999999903 -99.69780315801563 L 227.99999999999903 -99.69780315801563 L 228.99999999999903 -101.49780315801559 L 228.99999999999903 -101.49780315801559 L 229.99999999999903 -103.2978031580156 L 229.99999999999903 -103.2978031580156 L 230.99999999999903 -105.09780315801561 L 230.99999999999903 -105.09780315801561 L 231.99999999999903 -106.89780315801556 L 231.99999999999903 -106.89780315801556 L 232.99999999999903 -108.69780315801557 L 232.99999999999903 -108.69780315801557 L 233.99999999999898 -110.49780315801553 L 233.99999999999898 -110.49780315801553 L 234.99999999999898 -112.29780315801554 L 234.99999999999898 -112.29780315801554 L 235.99999999999898 -114.09780315801561 L 235.99999999999898 -114.09780315801561 L 236.99999999999898 -115.89780315801556 L 236.99999999999898 -115.89780315801556 L 237.99999999999898 -117.69780315801557 L 237.99999999999898 -117.69780315801557 L 238.99999999999898 -119.49780315801559 L 238.99999999999898 -119.49780315801559 L 239.99999999999898 -121.29780315801554 L 239.99999999999898 -121.29780315801554 L 240.99999999999892 -123.09780315801555 L 240.99999999999892 -123.09780315801555 L 241.99999999999892 -124.8978031580155 L 241.99999999999892 -124.8978031580155 L 242.99999999999892 -126.69780315801552 L 242.99999999999892 -126.69780315801552 L 243.99999999999892 -128.49780315801553 L 243.99999999999892 -128.49780315801553 L 244.99999999999892 -130.29780315801548 L 244.99999999999892 -130.29780315801548 L 245.99999999999892 -132.09780315801555 L 245.99999999999892 -132.09780315801555 L 246.99999999999892 -133.89780315801556 L 246.99999999999892 -133.89780315801556 L 247.99999999999886 -135.69780315801552 L 247.99999999999886 -135.69780315801552 L 248.99999999999886 -137.49780315801553 L 248.99999999999886 -137.49780315801553 L 249.99999999999886 -139.29780315801548 L 249.99999999999886 -139.29780315801548 L 250.99999999999886 -141.0978031580155 L 250.99999999999886 -141.0978031580155 L 251.99999999999886 -142.8978031580155 L 251.99999999999886 -142.8978031580155 L 252.99999999999886 -144.69780315801546 L 252.99999999999886 -144.69780315801546 L 253.99999999999886 -146.49780315801547 L 253.99999999999886 -146.49780315801547 L 254.9999999999988 -148.29780315801543 L 254.9999999999988 -148.29780315801543 L 255.9999999999988 -150.0978031580155 L 255.9999999999988 -150.0978031580155 L 256.9999999999988 -151.8978031580155 L 256.9999999999988 -151.8978031580155 L 257.9999999999988 -153.69780315801546 L 257.9999999999988 -153.69780315801546 L 258.9999999999988 -155.49780315801547 L 258.9999999999988 -155.49780315801547 L 259.9999999999988 -157.29780315801548 L 259.9999999999988 -157.29780315801548 L 260.9999999999988 -159.09780315801544 L 260.9999999999988 -159.09780315801544 L 261.99999999999875 -160.89780315801545 L 261.99999999999875 -160.89780315801545 L 262.99999999999875 -162.6978031580154 L 262.99999999999875 -162.6978031580154 L 263.99999999999875 -164.49780315801542 L 263.99999999999875 -164.49780315801542 L 264.99999999999875 -166.29780315801543 L 264.99999999999875 -166.29780315801543 L 265.99999999999875 -168.0978031580155 L 265.99999999999875 -168.0978031580155 L 266.99999999999875 -169.89780315801545 L 266.99999999999875 -169.89780315801545 L 267.99999999999875 -171.69780315801546 L 267.99999999999875 -171.69780315801546 L 268.9999999999987 -173.49780315801542 L 268.9999999999987 -173.49780315801542 L 269.9999999999987 -175.29780315801543 L 269.9999999999987 -175.29780315801543 L 270.9999999999987 -177.09780315801544 L 270.9999999999987 -177.09780315801544 L 271.9999999999987 -178.8978031580154 L 271.9999999999987 -178.8978031580154 L 272.9999999999987 -180.6978031580154 L 272.9999999999987 -180.6978031580154 L 273.9999999999987 -182.49780315801536 L 273.9999999999987 -182.49780315801536 L 274.99999999999864 -184.29780315801537 L 274.99999999999864 -184.29780315801537 L 275.99999999999864 -186.09780315801544 L 275.99999999999864 -186.09780315801544 L 276.99999999999864 -187.8978031580154 L 276.99999999999864 -187.8978031580154 L 277.99999999999864 -189.6978031580154 L 277.99999999999864 -189.6978031580154 L 278.99999999999864 -191.49780315801542 L 278.99999999999864 -191.49780315801542 L 279.99999999999864 -193.29780315801537 L 279.99999999999864 -193.29780315801537 L 280.99999999999864 -195.09780315801538 L 280.99999999999864 -195.09780315801538 L 281.9999999999986 -196.89780315801534 L 281.9999999999986 -196.89780315801534 L 282.9999999999986 -198.69780315801535 L 282.9999999999986 -198.69780315801535 L 283.9999999999986 -200.49780315801536 L 283.9999999999986 -200.49780315801536 L 284.9999999999986 -202.2978031580153 L 284.9999999999986 -202.2978031580153 L 285.9999999999986 -204.09780315801538 L 285.9999999999986 -204.09780315801538 L 286.9999999999986 -205.8978031580154 L 286.9999999999986 -205.8978031580154 L 287.9999999999986 -207.69780315801535 L 287.9999999999986 -207.69780315801535 L 288.9999999999985 -209.49780315801536 L 288.9999999999985 -209.49780315801536 L 289.9999999999985 -211.2978031580153 L 289.9999999999985 -211.2978031580153 L 290.9999999999985 -213.09780315801532 L 290.9999999999985 -213.09780315801532 L 291.9999999999985 -214.89780315801534 L 291.9999999999985 -214.89780315801534 L 292.9999999999985 -216.6978031580153 L 292.9999999999985 -216.6978031580153 L 293.9999999999985 -218.4978031580153 L 293.9999999999985 -218.4978031580153 L 294.9999999999985 -220.29780315801526 L 294.9999999999985 -220.29780315801526 L 295.99999999999847 -222.09780315801532 L 295.99999999999847 -222.09780315801532 L 296.99999999999847 -223.89780315801534 L 296.99999999999847 -223.89780315801534 L 297.99999999999847 -225.6978031580153 L 297.99999999999847 -225.6978031580153 L 298.99999999999847 -227.4978031580153 L 298.99999999999847 -227.4978031580153 L 299.99999999999847 -229.2978031580153 L 299.99999999999847 -229.2978031580153 L 300.99999999999847 -231.09780315801527 L 300.99999999999847 -231.09780315801527 L 301.99999999999847 -232.89780315801528 L 301.99999999999847 -232.89780315801528 L 302.9999999999984 -234.69780315801523 L 302.9999999999984 -234.69780315801523 L 303.9999999999984 -236.4978031580153 L 303.9999999999984 -236.4978031580153 L 304.9999999999984 -238.29780315801526 L 304.9999999999984 -238.29780315801526 L 305.9999999999984 -240.09780315801532 L 305.9999999999984 -240.09780315801532 L 306.9999999999984 -241.89780315801528 L 306.9999999999984 -241.89780315801528 L 307.9999999999984 -243.69780315801523 L 307.9999999999984 -243.69780315801523 L 308.9999999999984 -245.4978031580153 L 308.9999999999984 -245.4978031580153 L 309.99999999999835 -247.29780315801526 L 309.99999999999835 -247.29780315801526 L 310.99999999999835 -249.0978031580152 L 310.99999999999835 -249.0978031580152 L 311.99999999999835 -250.89780315801528 L 311.99999999999835 -250.89780315801528 L 312.99999999999835 -252.69780315801523 L 312.99999999999835 -252.69780315801523 L 313.99999999999835 -254.4978031580152 L 313.99999999999835 -254.4978031580152 L 314.99999999999835 -256.29780315801514 L 314.99999999999835 -256.29780315801514 L 315.99999999999835 -258.0978031580152 L 315.99999999999835 -258.0978031580152 L 316.9999999999983 -259.8978031580153 L 316.9999999999983 -259.8978031580153 L 317.9999999999983 -261.69780315801523 L 317.9999999999983 -261.69780315801523 L 318.9999999999983 -263.4978031580152 L 318.9999999999983 -263.4978031580152 L 319.9999999999983 -265.29780315801526 L 319.9999999999983 -265.29780315801526 L 320.9999999999983 -267.0978031580152 L 320.9999999999983 -267.0978031580152 L 321.9999999999983 -268.89780315801517" stroke-opacity="0.6980392156862745" stroke-linecap="round" stroke-linejoin="round" stroke-miterlimit="10" stroke-width="2.5"/><path fill="rgb(77,77,255)" stroke="none" paint-order="stroke fill markers" d=" M 144.82265434062373 237.00669098886527 C 144.82265434062373 239.76811473801925 142.5840780897777 242.00669098886527 139.82265434062373 242.00669098886527 C 137.06123059146975 242.00669098886527 134.82265434062373 239.76811473801925 134.82265434062373 237.00669098886527 C 134.82265434062373 234.2452672397113 137.06123059146975 232.00669098886527 139.82265434062373 232.00669098886527 C 142.5840780897777 232.00669098886527 144.82265434062373 234.2452672397113 144.82265434062373 237.00669098886527 Z" fill-opacity="1"/><path fill="none" stroke="rgb(0,0,0)" paint-order="fill stroke markers" d=" M 144.82265434062373 237.00669098886527 C 144.82265434062373 239.76811473801925 142.5840780897777 242.00669098886527 139.82265434062373 242.00669098886527 C 137.06123059146975 242.00669098886527 134.82265434062373 239.76811473801925 134.82265434062373 237.00669098886527 C 134.82265434062373 234.2452672397113 137.06123059146975 232.00669098886527 139.82265434062373 232.00669098886527 C 142.5840780897777 232.00669098886527 144.82265434062373 234.2452672397113 144.82265434062373 237.00669098886527 Z" stroke-opacity="1" stroke-linecap="round" stroke-linejoin="round" stroke-miterlimit="10"/><text fill="rgb(77,77,255)" stroke="none" font-family="geogebra-sans-serif, sans-serif" font-size="16px" font-style="normal" font-weight="normal" text-decoration="normal" x="121" y="243" text-anchor="start" dominant-baseline="alphabetic" fill-opacity="1">A</text><text fill="none" stroke="rgb(255,255,255)" font-family="geogebra-sans-serif, sans-serif" font-size="16px" font-style="normal" font-weight="normal" text-decoration="normal" x="121" y="243" text-anchor="start" dominant-baseline="alphabetic" stroke-opacity="1" stroke-linejoin="bevel" stroke-miterlimit="10" stroke-width="3">A</text><text fill="rgb(77,77,255)" stroke="none" font-family="geogebra-sans-serif, sans-serif" font-size="16px" font-style="normal" font-weight="normal" text-decoration="normal" x="121" y="243" text-anchor="start" dominant-baseline="alphabetic" fill-opacity="1">A</text><path fill="rgb(77,77,255)" stroke="none" paint-order="stroke fill markers" d=" M 63.920257995167646 196.555492816137 C 63.920257995167646 199.31691656529097 61.68168174432161 201.555492816137 58.920257995167646 201.555492816137 C 56.158834246013676 201.555492816137 53.920257995167646 199.31691656529097 53.920257995167646 196.555492816137 C 53.920257995167646 193.794069066983 56.158834246013676 191.555492816137 58.920257995167646 191.555492816137 C 61.68168174432161 191.555492816137 63.920257995167646 193.794069066983 63.920257995167646 196.555492816137 Z" fill-opacity="1"/><path fill="none" stroke="rgb(0,0,0)" paint-order="fill stroke markers" d=" M 63.920257995167646 196.555492816137 C 63.920257995167646 199.31691656529097 61.68168174432161 201.555492816137 58.920257995167646 201.555492816137 C 56.158834246013676 201.555492816137 53.920257995167646 199.31691656529097 53.920257995167646 196.555492816137 C 53.920257995167646 193.794069066983 56.158834246013676 191.555492816137 58.920257995167646 191.555492816137 C 61.68168174432161 191.555492816137 63.920257995167646 193.794069066983 63.920257995167646 196.555492816137 Z" stroke-opacity="1" stroke-linecap="round" stroke-linejoin="round" stroke-miterlimit="10"/><text fill="rgb(77,77,255)" stroke="none" font-family="geogebra-sans-serif, sans-serif" font-size="16px" font-style="normal" font-weight="normal" text-decoration="normal" x="41" y="202" text-anchor="start" dominant-baseline="alphabetic" fill-opacity="1">B</text><text fill="none" stroke="rgb(255,255,255)" font-family="geogebra-sans-serif, sans-serif" font-size="16px" font-style="normal" font-weight="normal" text-decoration="normal" x="41" y="202" text-anchor="start" dominant-baseline="alphabetic" stroke-opacity="1" stroke-linejoin="bevel" stroke-miterlimit="10" stroke-width="3">B</text><text fill="rgb(77,77,255)" stroke="none" font-family="geogebra-sans-serif, sans-serif" font-size="16px" font-style="normal" font-weight="normal" text-decoration="normal" x="41" y="202" text-anchor="start" dominant-baseline="alphabetic" fill-opacity="1">B</text><path fill="rgb(77,77,255)" stroke="none" paint-order="stroke fill markers" d=" M 104.37145616789569 115.65309647068045 C 104.37145616789569 118.41452021983442 102.13287991704965 120.65309647068045 99.37145616789569 120.65309647068045 C 96.61003241874172 120.65309647068045 94.37145616789569 118.41452021983442 94.37145616789569 115.65309647068045 C 94.37145616789569 112.89167272152649 96.61003241874172 110.65309647068045 99.37145616789569 110.65309647068045 C 102.13287991704965 110.65309647068045 104.37145616789569 112.89167272152649 104.37145616789569 115.65309647068045 Z" fill-opacity="1"/><path fill="none" stroke="rgb(0,0,0)" paint-order="fill stroke markers" d=" M 104.37145616789569 115.65309647068045 C 104.37145616789569 118.41452021983442 102.13287991704965 120.65309647068045 99.37145616789569 120.65309647068045 C 96.61003241874172 120.65309647068045 94.37145616789569 118.41452021983442 94.37145616789569 115.65309647068045 C 94.37145616789569 112.89167272152649 96.61003241874172 110.65309647068045 99.37145616789569 110.65309647068045 C 102.13287991704965 110.65309647068045 104.37145616789569 112.89167272152649 104.37145616789569 115.65309647068045 Z" stroke-opacity="1" stroke-linecap="round" stroke-linejoin="round" stroke-miterlimit="10"/><text fill="rgb(77,77,255)" stroke="none" font-family="geogebra-sans-serif, sans-serif" font-size="16px" font-style="normal" font-weight="normal" text-decoration="normal" x="81" y="121" text-anchor="start" dominant-baseline="alphabetic" fill-opacity="1">C</text><text fill="none" stroke="rgb(255,255,255)" font-family="geogebra-sans-serif, sans-serif" font-size="16px" font-style="normal" font-weight="normal" text-decoration="normal" x="81" y="121" text-anchor="start" dominant-baseline="alphabetic" stroke-opacity="1" stroke-linejoin="bevel" stroke-miterlimit="10" stroke-width="3">C</text><text fill="rgb(77,77,255)" stroke="none" font-family="geogebra-sans-serif, sans-serif" font-size="16px" font-style="normal" font-weight="normal" text-decoration="normal" x="81" y="121" text-anchor="start" dominant-baseline="alphabetic" fill-opacity="1">C</text><path fill="rgb(77,77,255)" stroke="none" paint-order="stroke fill markers" d=" M 144.82265434062373 75.2018982979522 C 144.82265434062373 77.96332204710616 142.5840780897777 80.2018982979522 139.82265434062373 80.2018982979522 C 137.06123059146975 80.2018982979522 134.82265434062373 77.96332204710616 134.82265434062373 75.2018982979522 C 134.82265434062373 72.44047454879824 137.06123059146975 70.2018982979522 139.82265434062373 70.2018982979522 C 142.5840780897777 70.2018982979522 144.82265434062373 72.44047454879824 144.82265434062373 75.2018982979522 Z" fill-opacity="1"/><path fill="none" stroke="rgb(0,0,0)" paint-order="fill stroke markers" d=" M 144.82265434062373 75.2018982979522 C 144.82265434062373 77.96332204710616 142.5840780897777 80.2018982979522 139.82265434062373 80.2018982979522 C 137.06123059146975 80.2018982979522 134.82265434062373 77.96332204710616 134.82265434062373 75.2018982979522 C 134.82265434062373 72.44047454879824 137.06123059146975 70.2018982979522 139.82265434062373 70.2018982979522 C 142.5840780897777 70.2018982979522 144.82265434062373 72.44047454879824 144.82265434062373 75.2018982979522 Z" stroke-opacity="1" stroke-linecap="round" stroke-linejoin="round" stroke-miterlimit="10"/><text fill="rgb(77,77,255)" stroke="none" font-family="geogebra-sans-serif, sans-serif" font-size="16px" font-style="normal" font-weight="normal" text-decoration="normal" x="147" y="81" text-anchor="start" dominant-baseline="alphabetic" fill-opacity="1">D</text><text fill="none" stroke="rgb(255,255,255)" font-family="geogebra-sans-serif, sans-serif" font-size="16px" font-style="normal" font-weight="normal" text-decoration="normal" x="147" y="81" text-anchor="start" dominant-baseline="alphabetic" stroke-opacity="1" stroke-linejoin="bevel" stroke-miterlimit="10" stroke-width="3">D</text><text fill="rgb(77,77,255)" stroke="none" font-family="geogebra-sans-serif, sans-serif" font-size="16px" font-style="normal" font-weight="normal" text-decoration="normal" x="147" y="81" text-anchor="start" dominant-baseline="alphabetic" fill-opacity="1">D</text><g transform="scale(19,19)"><g transform="translate(8.578947368421053,2.486105263157895)"><path fill="rgb(0,0,0)" stroke="none" paint-order="stroke fill markers" d=" M 0.577 -0.377 L 0.483 0.001 Q 0.461 0.09 0.3785 0.146 Q 0.296 0.202 0.20500000000000002 0.202 Q 0.145 0.202 0.108 0.178 Q 0.07100000000000001 0.154 0.07100000000000001 0.115 Q 0.07100000000000001 0.083 0.0925 0.061 Q 0.114 0.039 0.14300000000000002 0.039 Q 0.162 0.039 0.177 0.05 Q 0.192 0.061 0.192 0.085 Q 0.192 0.132 0.14400000000000002 0.152 Q 0.167 0.166 0.20500000000000002 0.166 Q 0.26 0.166 0.3085 0.116 Q 0.357 0.066 0.377 -0.022 Q 0.334 0.008 0.281 0.008 Q 0.254 0.008 0.2305 0.0035 Q 0.20700000000000002 -0.001 0.1805 -0.0135 Q 0.154 -0.026000000000000002 0.138 -0.054 Q 0.122 -0.082 0.122 -0.122 Q 0.122 -0.157 0.1355 -0.2005 Q 0.149 -0.244 0.182 -0.33 Q 0.199 -0.375 0.199 -0.395 Q 0.199 -0.405 0.196 -0.41000000000000003 Q 0.193 -0.41500000000000004 0.19 -0.41550000000000004 Q 0.187 -0.41600000000000004 0.182 -0.41600000000000004 Q 0.17400000000000002 -0.41600000000000004 0.1635 -0.41200000000000003 Q 0.153 -0.40800000000000003 0.1375 -0.3975 Q 0.122 -0.387 0.106 -0.3605 Q 0.09 -0.334 0.079 -0.295 Q 0.075 -0.28200000000000003 0.056 -0.28200000000000003 Q 0.032 -0.28200000000000003 0.032 -0.296 Q 0.032 -0.306 0.042 -0.3295 Q 0.052000000000000005 -0.353 0.07 -0.3815 Q 0.088 -0.41000000000000003 0.11950000000000001 -0.431 Q 0.151 -0.452 0.188 -0.452 Q 0.233 -0.452 0.267 -0.4275 Q 0.301 -0.403 0.301 -0.362 Q 0.301 -0.34600000000000003 0.28800000000000003 -0.312 Q 0.229 -0.16 0.229 -0.101 Q 0.229 -0.028 0.289 -0.028 Q 0.319 -0.028 0.357 -0.052000000000000005 Q 0.36 -0.054 0.3675 -0.06 Q 0.375 -0.066 0.3845 -0.078 Q 0.394 -0.09 0.396 -0.1 Q 0.403 -0.127 0.438 -0.266 L 0.464 -0.37 Q 0.468 -0.385 0.47100000000000003 -0.394 Q 0.47400000000000003 -0.403 0.482 -0.4165 Q 0.49 -0.43 0.5035000000000001 -0.437 Q 0.517 -0.444 0.535 -0.444 Q 0.557 -0.444 0.5695 -0.431 Q 0.582 -0.418 0.582 -0.4 Q 0.582 -0.395 0.577 -0.377 Z"/></g><g transform="translate(9.483725146198832,2.486105263157895)"><path fill="rgb(0,0,0)" stroke="none" paint-order="stroke fill markers" d=" M 0.788 -0.332 L 0.105 -0.332 Q 0.064 -0.332 0.064 -0.362 Q 0.064 -0.393 0.11 -0.393 L 0.783 -0.393 Q 0.8290000000000001 -0.393 0.8290000000000001 -0.362 Q 0.8290000000000001 -0.332 0.788 -0.332 M 0.783 -0.108 L 0.11 -0.108 Q 0.064 -0.108 0.064 -0.139 Q 0.064 -0.169 0.105 -0.169 L 0.788 -0.169 Q 0.8290000000000001 -0.169 0.8290000000000001 -0.139 Q 0.8290000000000001 -0.108 0.783 -0.108 Z"/></g><g transform="translate(10.655502923976611,2.486105263157895)"><path fill="rgb(0,0,0)" stroke="none" paint-order="stroke fill markers" d=" M 0.354 -0.623 L 0.354 -0.047 L 0.494 -0.047 L 0.494 0 Q 0.45 -0.003 0.295 -0.003 Q 0.14 -0.003 0.096 0 L 0.096 -0.047 L 0.23500000000000001 -0.047 L 0.23500000000000001 -0.5640000000000001 Q 0.17300000000000001 -0.544 0.105 -0.544 L 0.085 -0.544 L 0.085 -0.591 L 0.105 -0.591 Q 0.229 -0.591 0.306 -0.648 Q 0.315 -0.655 0.328 -0.655 Q 0.34600000000000003 -0.655 0.35000000000000003 -0.6485 Q 0.354 -0.642 0.354 -0.623 Z"/></g><g transform="translate(11.23050292397661,2.486105263157895)"><path fill="rgb(0,0,0)" stroke="none" paint-order="stroke fill markers" d=" M 0.09716796875 0 Q 0.091796875 0 0.08837890625 -0.00341796875 Q 0.0849609375 -0.0068359375 0.0849609375 -0.01220703125 L 0.0849609375 -0.1240234375 Q 0.0849609375 -0.12841796875 0.088623046875 -0.131591796875 Q 0.09228515625 -0.134765625 0.09716796875 -0.134765625 L 0.208984375 -0.134765625 Q 0.212890625 -0.134765625 0.216552734375 -0.131591796875 Q 0.22021484375 -0.12841796875 0.22021484375 -0.1240234375 L 0.22021484375 -0.01220703125 Q 0.22021484375 -0.0068359375 0.216796875 -0.00341796875 Q 0.21337890625 0 0.208984375 0 L 0.09716796875 0 Z"/></g><g transform="translate(11.53650292397661,2.486105263157895)"><path fill="rgb(0,0,0)" stroke="none" paint-order="stroke fill markers" d=" M 0.199 -0.47900000000000004 L 0.34900000000000003 -0.395 Q 0.419 -0.441 0.419 -0.507 Q 0.419 -0.558 0.3835 -0.587 Q 0.34800000000000003 -0.616 0.28500000000000003 -0.616 Q 0.265 -0.616 0.247 -0.6135 Q 0.229 -0.611 0.20600000000000002 -0.604 Q 0.183 -0.597 0.169 -0.5805 Q 0.155 -0.5640000000000001 0.155 -0.539 Q 0.155 -0.504 0.199 -0.47900000000000004 M 0.393 -0.37 Q 0.42 -0.354 0.436 -0.3435 Q 0.452 -0.333 0.47650000000000003 -0.31 Q 0.501 -0.28700000000000003 0.5135 -0.256 Q 0.526 -0.225 0.526 -0.187 Q 0.526 -0.1 0.463 -0.0445 Q 0.4 0.011 0.28500000000000003 0.011 Q 0.181 0.011 0.1145 -0.032 Q 0.048 -0.075 0.048 -0.161 Q 0.048 -0.273 0.176 -0.329 Q 0.08 -0.383 0.08 -0.48 Q 0.08 -0.556 0.1345 -0.6055 Q 0.189 -0.655 0.289 -0.655 Q 0.38 -0.655 0.437 -0.618 Q 0.494 -0.581 0.494 -0.508 Q 0.494 -0.422 0.393 -0.37 M 0.222 -0.302 Q 0.134 -0.252 0.134 -0.161 Q 0.134 -0.10200000000000001 0.17500000000000002 -0.067 Q 0.216 -0.032 0.289 -0.032 Q 0.324 -0.032 0.3545 -0.0385 Q 0.385 -0.045 0.41250000000000003 -0.069 Q 0.44 -0.093 0.44 -0.132 Q 0.44 -0.155 0.4275 -0.17300000000000001 Q 0.41500000000000004 -0.191 0.4015 -0.2005 Q 0.388 -0.21 0.359 -0.226 Q 0.247 -0.289 0.222 -0.302 Z"/></g><g transform="translate(12.111502923976609,2.486105263157895)"><path fill="rgb(0,0,0)" stroke="none" paint-order="stroke fill markers" d=" M 0.536 -0.401 Q 0.516 -0.41600000000000004 0.488 -0.41600000000000004 Q 0.461 -0.41600000000000004 0.4375 -0.392 Q 0.41400000000000003 -0.368 0.403 -0.325 Q 0.4 -0.316 0.385 -0.257 Q 0.37 -0.198 0.368 -0.189 Q 0.34600000000000003 -0.099 0.34600000000000003 -0.078 Q 0.34600000000000003 -0.028 0.402 -0.028 Q 0.44 -0.028 0.482 -0.0575 Q 0.524 -0.08700000000000001 0.544 -0.149 Q 0.548 -0.162 0.5670000000000001 -0.162 Q 0.591 -0.162 0.591 -0.148 Q 0.591 -0.134 0.578 -0.1095 Q 0.5650000000000001 -0.085 0.542 -0.058 Q 0.519 -0.031 0.48 -0.0115 Q 0.441 0.008 0.397 0.008 Q 0.295 0.008 0.259 -0.053 Q 0.215 0.008 0.152 0.008 Q 0.105 0.008 0.07150000000000001 -0.0165 Q 0.038 -0.041 0.038 -0.08 Q 0.038 -0.115 0.06 -0.1365 Q 0.082 -0.158 0.11 -0.158 Q 0.133 -0.158 0.1465 -0.14400000000000002 Q 0.16 -0.13 0.16 -0.112 Q 0.16 -0.091 0.1455 -0.07050000000000001 Q 0.131 -0.05 0.106 -0.043000000000000003 Q 0.126 -0.028 0.154 -0.028 Q 0.181 -0.028 0.20450000000000002 -0.051500000000000004 Q 0.228 -0.075 0.23900000000000002 -0.11900000000000001 L 0.273 -0.256 Q 0.296 -0.34800000000000003 0.296 -0.366 Q 0.296 -0.41600000000000004 0.24 -0.41600000000000004 Q 0.202 -0.41600000000000004 0.16 -0.3865 Q 0.11800000000000001 -0.357 0.098 -0.295 Q 0.094 -0.28200000000000003 0.075 -0.28200000000000003 Q 0.051000000000000004 -0.28200000000000003 0.051000000000000004 -0.296 Q 0.051000000000000004 -0.31 0.064 -0.3345 Q 0.077 -0.359 0.1 -0.386 Q 0.123 -0.41300000000000003 0.162 -0.4325 Q 0.201 -0.452 0.245 -0.452 Q 0.34700000000000003 -0.452 0.383 -0.391 Q 0.427 -0.452 0.49 -0.452 Q 0.537 -0.452 0.5705 -0.4275 Q 0.604 -0.403 0.604 -0.364 Q 0.604 -0.329 0.582 -0.3075 Q 0.56 -0.28600000000000003 0.532 -0.28600000000000003 Q 0.509 -0.28600000000000003 0.4955 -0.3 Q 0.482 -0.314 0.482 -0.332 Q 0.482 -0.353 0.4965 -0.3735 Q 0.511 -0.394 0.536 -0.401 Z"/></g></g></g></g></svg>