<svg version="1.1" xmlns="http://www.w3.org/2000/svg" xmlns:xlink="http://www.w3.org/1999/xlink" width="359" height="324"><defs><clipPath id="RMtsAeNfPSGy"><path fill="none" stroke="none" d=" M 0 0 L 359 0 L 359 324 L 0 324 L 0 0 Z"/></clipPath></defs><g transform="scale(1,1)" clip-path="url(#RMtsAeNfPSGy)"><g><rect fill="rgb(255,255,255)" stroke="none" x="0" y="0" width="359" height="324" fill-opacity="1"/><path fill="none" stroke="rgb(192,192,192)" paint-order="fill stroke markers" d=" M 110.5 0.5 L 110.5 324.5 M 189.5 0.5 L 189.5 324.5 M 268.5 0.5 L 268.5 324.5 M 348.5 0.5 L 348.5 324.5" stroke-opacity="1" stroke-linecap="round" stroke-linejoin="round" stroke-miterlimit="10"/><path fill="none" stroke="rgb(192,192,192)" paint-order="fill stroke markers" d=" M 14.5 0.5 L 14.5 324.5 M 46.5 0.5 L 46.5 324.5 M 62.5 0.5 L 62.5 324.5 M 78.5 0.5 L 78.5 324.5 M 94.5 0.5 L 94.5 324.5 M 126.5 0.5 L 126.5 324.5 M 141.5 0.5 L 141.5 324.5 M 157.5 0.5 L 157.5 324.5 M 173.5 0.5 L 173.5 324.5 M 205.5 0.5 L 205.5 324.5 M 221.5 0.5 L 221.5 324.5 M 237.5 0.5 L 237.5 324.5 M 253.5 0.5 L 253.5 324.5 M 284.5 0.5 L 284.5 324.5 M 300.5 0.5 L 300.5 324.5 M 316.5 0.5 L 316.5 324.5 M 332.5 0.5 L 332.5 324.5" stroke-opacity="0.23529411764705882" stroke-linecap="round" stroke-linejoin="round" stroke-miterlimit="10"/><path fill="none" stroke="rgb(192,192,192)" paint-order="fill stroke markers" d=" M 0.5 68.5 L 359.5 68.5 M 0.5 68.5 L 359.5 68.5 M 0.5 148.5 L 359.5 148.5 M 0.5 227.5 L 359.5 227.5" stroke-opacity="1" stroke-linecap="round" stroke-linejoin="round" stroke-miterlimit="10"/><path fill="none" stroke="rgb(192,192,192)" paint-order="fill stroke markers" d=" M 0.5 5.5 L 359.5 5.5 M 0.5 21.5 L 359.5 21.5 M 0.5 37.5 L 359.5 37.5 M 0.5 53.5 L 359.5 53.5 M 0.5 84.5 L 359.5 84.5 M 0.5 100.5 L 359.5 100.5 M 0.5 116.5 L 359.5 116.5 M 0.5 132.5 L 359.5 132.5 M 0.5 164.5 L 359.5 164.5 M 0.5 180.5 L 359.5 180.5 M 0.5 195.5 L 359.5 195.5 M 0.5 211.5 L 359.5 211.5 M 0.5 243.5 L 359.5 243.5 M 0.5 259.5 L 359.5 259.5 M 0.5 275.5 L 359.5 275.5 M 0.5 291.5 L 359.5 291.5 M 0.5 322.5 L 359.5 322.5" stroke-opacity="0.23529411764705882" stroke-linecap="round" stroke-linejoin="round" stroke-miterlimit="10"/><path fill="none" stroke="rgb(0,0,0)" paint-order="fill stroke markers" d=" M 30.5 2.5 L 30.5 324.5" stroke-opacity="1" stroke-miterlimit="10"/><path fill="none" stroke="rgb(0,0,0)" paint-order="fill stroke markers" d=" M 30.5 1.5 L 26.5 5.5" stroke-opacity="1" stroke-miterlimit="10"/><path fill="none" stroke="rgb(0,0,0)" paint-order="fill stroke markers" d=" M 30.5 1.5 L 34.5 5.5" stroke-opacity="1" stroke-miterlimit="10"/><path fill="none" stroke="rgb(0,0,0)" paint-order="fill stroke markers" d=" M 0.5 307.5 L 357.5 307.5" stroke-opacity="1" stroke-miterlimit="10"/><path fill="none" stroke="rgb(0,0,0)" paint-order="fill stroke markers" d=" M 358.5 307.5 L 354.5 303.5" stroke-opacity="1" stroke-miterlimit="10"/><path fill="none" stroke="rgb(0,0,0)" paint-order="fill stroke markers" d=" M 358.5 307.5 L 354.5 311.5" stroke-opacity="1" stroke-miterlimit="10"/><text fill="rgb(0,0,0)" stroke="none" font-family="geogebra-sans-serif, sans-serif" font-size="12px" font-style="normal" font-weight="normal" text-decoration="normal" x="108" y="318" text-anchor="start" dominant-baseline="alphabetic" fill-opacity="1">2</text><text fill="none" stroke="rgb(255,255,255)" font-family="geogebra-sans-serif, sans-serif" font-size="12px" font-style="normal" font-weight="normal" text-decoration="normal" x="108" y="318" text-anchor="start" dominant-baseline="alphabetic" stroke-opacity="1" stroke-linejoin="bevel" stroke-miterlimit="10" stroke-width="3">2</text><text fill="rgb(0,0,0)" stroke="none" font-family="geogebra-sans-serif, sans-serif" font-size="12px" font-style="normal" font-weight="normal" text-decoration="normal" x="108" y="318" text-anchor="start" dominant-baseline="alphabetic" fill-opacity="1">2</text><text fill="rgb(0,0,0)" stroke="none" font-family="geogebra-sans-serif, sans-serif" font-size="12px" font-style="normal" font-weight="normal" text-decoration="normal" x="187" y="318" text-anchor="start" dominant-baseline="alphabetic" fill-opacity="1">4</text><text fill="none" stroke="rgb(255,255,255)" font-family="geogebra-sans-serif, sans-serif" font-size="12px" font-style="normal" font-weight="normal" text-decoration="normal" x="187" y="318" text-anchor="start" dominant-baseline="alphabetic" stroke-opacity="1" stroke-linejoin="bevel" stroke-miterlimit="10" stroke-width="3">4</text><text fill="rgb(0,0,0)" stroke="none" font-family="geogebra-sans-serif, sans-serif" font-size="12px" font-style="normal" font-weight="normal" text-decoration="normal" x="187" y="318" text-anchor="start" dominant-baseline="alphabetic" fill-opacity="1">4</text><text fill="rgb(0,0,0)" stroke="none" font-family="geogebra-sans-serif, sans-serif" font-size="12px" font-style="normal" font-weight="normal" text-decoration="normal" x="266" y="318" text-anchor="start" dominant-baseline="alphabetic" fill-opacity="1">6</text><text fill="none" stroke="rgb(255,255,255)" font-family="geogebra-sans-serif, sans-serif" font-size="12px" font-style="normal" font-weight="normal" text-decoration="normal" x="266" y="318" text-anchor="start" dominant-baseline="alphabetic" stroke-opacity="1" stroke-linejoin="bevel" stroke-miterlimit="10" stroke-width="3">6</text><text fill="rgb(0,0,0)" stroke="none" font-family="geogebra-sans-serif, sans-serif" font-size="12px" font-style="normal" font-weight="normal" text-decoration="normal" x="266" y="318" text-anchor="start" dominant-baseline="alphabetic" fill-opacity="1">6</text><text fill="rgb(0,0,0)" stroke="none" font-family="geogebra-sans-serif, sans-serif" font-size="12px" font-style="normal" font-weight="normal" text-decoration="normal" x="346" y="318" text-anchor="start" dominant-baseline="alphabetic" fill-opacity="1">8</text><text fill="none" stroke="rgb(255,255,255)" font-family="geogebra-sans-serif, sans-serif" font-size="12px" font-style="normal" font-weight="normal" text-decoration="normal" x="346" y="318" text-anchor="start" dominant-baseline="alphabetic" stroke-opacity="1" stroke-linejoin="bevel" stroke-miterlimit="10" stroke-width="3">8</text><text fill="rgb(0,0,0)" stroke="none" font-family="geogebra-sans-serif, sans-serif" font-size="12px" font-style="normal" font-weight="normal" text-decoration="normal" x="346" y="318" text-anchor="start" dominant-baseline="alphabetic" fill-opacity="1">8</text><text fill="rgb(0,0,0)" stroke="none" font-family="geogebra-sans-serif, sans-serif" font-size="12px" font-style="normal" font-weight="normal" text-decoration="normal" x="16" y="232" text-anchor="start" dominant-baseline="alphabetic" fill-opacity="1">2</text><text fill="none" stroke="rgb(255,255,255)" font-family="geogebra-sans-serif, sans-serif" font-size="12px" font-style="normal" font-weight="normal" text-decoration="normal" x="16" y="232" text-anchor="start" dominant-baseline="alphabetic" stroke-opacity="1" stroke-linejoin="bevel" stroke-miterlimit="10" stroke-width="3">2</text><text fill="rgb(0,0,0)" stroke="none" font-family="geogebra-sans-serif, sans-serif" font-size="12px" font-style="normal" font-weight="normal" text-decoration="normal" x="16" y="232" text-anchor="start" dominant-baseline="alphabetic" fill-opacity="1">2</text><text fill="rgb(0,0,0)" stroke="none" font-family="geogebra-sans-serif, sans-serif" font-size="12px" font-style="normal" font-weight="normal" text-decoration="normal" x="16" y="153" text-anchor="start" dominant-baseline="alphabetic" fill-opacity="1">4</text><text fill="none" stroke="rgb(255,255,255)" font-family="geogebra-sans-serif, sans-serif" font-size="12px" font-style="normal" font-weight="normal" text-decoration="normal" x="16" y="153" text-anchor="start" dominant-baseline="alphabetic" stroke-opacity="1" stroke-linejoin="bevel" stroke-miterlimit="10" stroke-width="3">4</text><text fill="rgb(0,0,0)" stroke="none" font-family="geogebra-sans-serif, sans-serif" font-size="12px" font-style="normal" font-weight="normal" text-decoration="normal" x="16" y="153" text-anchor="start" dominant-baseline="alphabetic" fill-opacity="1">4</text><text fill="rgb(0,0,0)" stroke="none" font-family="geogebra-sans-serif, sans-serif" font-size="12px" font-style="normal" font-weight="normal" text-decoration="normal" x="16" y="73" text-anchor="start" dominant-baseline="alphabetic" fill-opacity="1">6</text><text fill="none" stroke="rgb(255,255,255)" font-family="geogebra-sans-serif, sans-serif" font-size="12px" font-style="normal" font-weight="normal" text-decoration="normal" x="16" y="73" text-anchor="start" dominant-baseline="alphabetic" stroke-opacity="1" stroke-linejoin="bevel" stroke-miterlimit="10" stroke-width="3">6</text><text fill="rgb(0,0,0)" stroke="none" font-family="geogebra-sans-serif, sans-serif" font-size="12px" font-style="normal" font-weight="normal" text-decoration="normal" x="16" y="73" text-anchor="start" dominant-baseline="alphabetic" fill-opacity="1">6</text><text fill="rgb(0,0,0)" stroke="none" font-family="geogebra-sans-serif, sans-serif" font-size="12px" font-style="normal" font-weight="normal" text-decoration="normal" x="16" y="323" text-anchor="start" dominant-baseline="alphabetic" fill-opacity="1">0</text><text fill="none" stroke="rgb(255,255,255)" font-family="geogebra-sans-serif, sans-serif" font-size="12px" font-style="normal" font-weight="normal" text-decoration="normal" x="16" y="323" text-anchor="start" dominant-baseline="alphabetic" stroke-opacity="1" stroke-linejoin="bevel" stroke-miterlimit="10" stroke-width="3">0</text><text fill="rgb(0,0,0)" stroke="none" font-family="geogebra-sans-serif, sans-serif" font-size="12px" font-style="normal" font-weight="normal" text-decoration="normal" x="16" y="323" text-anchor="start" dominant-baseline="alphabetic" fill-opacity="1">0</text><path fill="none" stroke="rgb(204,0,0)" paint-order="fill stroke markers" d=" M 0 327.59895378594206 L 0 327.59895378594206 L 1 326.93228711927543 L 1 326.93228711927543 L 2 326.26562045260874 L 2 326.26562045260874 L 2.9999999999999964 325.59895378594206 L 2.9999999999999964 325.59895378594206 L 3.9999999999999964 324.93228711927543 L 3.9999999999999964 324.93228711927543 L 4.9999999999999964 324.26562045260874 L 4.9999999999999964 324.26562045260874 L 5.9999999999999964 323.5989537859421 L 5.9999999999999964 323.5989537859421 L 6.9999999999999964 322.93228711927543 L 6.9999999999999964 322.93228711927543 L 7.9999999999999964 322.26562045260874 L 7.9999999999999964 322.26562045260874 L 8.999999999999996 321.5989537859421 L 8.999999999999996 321.5989537859421 L 9.999999999999996 320.93228711927543 L 9.999999999999996 320.93228711927543 L 10.999999999999996 320.26562045260874 L 10.999999999999996 320.26562045260874 L 11.999999999999996 319.5989537859421 L 11.999999999999996 319.5989537859421 L 12.999999999999993 318.93228711927543 L 12.999999999999993 318.93228711927543 L 13.999999999999993 318.26562045260874 L 13.999999999999993 318.26562045260874 L 14.999999999999993 317.5989537859421 L 14.999999999999993 317.5989537859421 L 15.999999999999993 316.93228711927543 L 15.999999999999993 316.93228711927543 L 16.999999999999993 316.26562045260874 L 16.999999999999993 316.26562045260874 L 17.999999999999993 315.5989537859421 L 17.999999999999993 315.5989537859421 L 18.999999999999993 314.93228711927543 L 18.999999999999993 314.93228711927543 L 19.999999999999993 314.26562045260874 L 19.999999999999993 314.26562045260874 L 20.999999999999993 313.5989537859421 L 20.999999999999993 313.5989537859421 L 21.999999999999993 312.93228711927543 L 21.999999999999993 312.93228711927543 L 22.999999999999993 312.2656204526088 L 22.999999999999993 312.2656204526088 L 23.99999999999999 311.5989537859421 L 23.99999999999999 311.5989537859421 L 24.99999999999999 310.93228711927543 L 24.99999999999999 310.93228711927543 L 25.99999999999999 310.2656204526088 L 25.99999999999999 310.2656204526088 L 26.99999999999999 309.5989537859421 L 26.99999999999999 309.5989537859421 L 27.99999999999999 308.93228711927543 L 27.99999999999999 308.93228711927543 L 28.99999999999999 308.2656204526088 L 28.99999999999999 308.2656204526088 L 29.99999999999999 307.5989537859421 L 29.99999999999999 307.5989537859421 L 30.99999999999999 306.93228711927543 L 30.99999999999999 306.93228711927543 L 31.99999999999999 306.2656204526088 L 31.99999999999999 306.2656204526088 L 32.999999999999986 305.5989537859421 L 32.999999999999986 305.5989537859421 L 33.999999999999986 304.93228711927543 L 33.999999999999986 304.93228711927543 L 34.999999999999986 304.2656204526088 L 34.999999999999986 304.2656204526088 L 35.999999999999986 303.5989537859421 L 35.999999999999986 303.5989537859421 L 36.999999999999986 302.93228711927543 L 36.999999999999986 302.93228711927543 L 37.999999999999986 302.2656204526088 L 37.999999999999986 302.2656204526088 L 38.999999999999986 301.5989537859421 L 38.999999999999986 301.5989537859421 L 39.999999999999986 300.93228711927543 L 39.999999999999986 300.93228711927543 L 40.999999999999986 300.2656204526088 L 40.999999999999986 300.2656204526088 L 41.999999999999986 299.5989537859421 L 41.999999999999986 299.5989537859421 L 42.999999999999986 298.93228711927543 L 42.999999999999986 298.93228711927543 L 43.999999999999986 298.2656204526088 L 43.999999999999986 298.2656204526088 L 44.999999999999986 297.5989537859421 L 44.999999999999986 297.5989537859421 L 45.999999999999986 296.9322871192755 L 45.999999999999986 296.9322871192755 L 46.999999999999986 296.2656204526088 L 46.999999999999986 296.2656204526088 L 47.999999999999986 295.5989537859421 L 47.999999999999986 295.5989537859421 L 48.999999999999986 294.9322871192755 L 48.999999999999986 294.9322871192755 L 49.999999999999986 294.2656204526088 L 49.999999999999986 294.2656204526088 L 50.999999999999986 293.5989537859421 L 50.999999999999986 293.5989537859421 L 51.999999999999986 292.9322871192755 L 51.999999999999986 292.9322871192755 L 52.999999999999986 292.2656204526088 L 52.999999999999986 292.2656204526088 L 53.999999999999986 291.5989537859421 L 53.999999999999986 291.5989537859421 L 54.999999999999986 290.9322871192755 L 54.999999999999986 290.9322871192755 L 55.999999999999986 290.2656204526088 L 55.999999999999986 290.2656204526088 L 56.999999999999986 289.5989537859421 L 56.999999999999986 289.5989537859421 L 57.999999999999986 288.9322871192755 L 57.999999999999986 288.9322871192755 L 58.999999999999986 288.2656204526088 L 58.999999999999986 288.2656204526088 L 59.999999999999986 287.5989537859421 L 59.999999999999986 287.5989537859421 L 60.999999999999986 286.9322871192755 L 60.999999999999986 286.9322871192755 L 61.999999999999986 286.2656204526088 L 61.999999999999986 286.2656204526088 L 62.99999999999998 285.5989537859422 L 62.99999999999998 285.5989537859422 L 63.99999999999998 284.9322871192755 L 63.99999999999998 284.9322871192755 L 64.99999999999997 284.2656204526088 L 64.99999999999997 284.2656204526088 L 65.99999999999997 283.5989537859422 L 65.99999999999997 283.5989537859422 L 66.99999999999997 282.9322871192755 L 66.99999999999997 282.9322871192755 L 67.99999999999997 282.2656204526088 L 67.99999999999997 282.2656204526088 L 68.99999999999997 281.5989537859422 L 68.99999999999997 281.5989537859422 L 69.99999999999997 280.9322871192755 L 69.99999999999997 280.9322871192755 L 70.99999999999999 280.2656204526088 L 70.99999999999999 280.2656204526088 L 71.99999999999999 279.5989537859422 L 71.99999999999999 279.5989537859422 L 73 278.9322871192755 L 73 278.9322871192755 L 74 278.2656204526088 L 74 278.2656204526088 L 75 277.5989537859421 L 75 277.5989537859421 L 76 276.9322871192755 L 76 276.9322871192755 L 77 276.2656204526088 L 77 276.2656204526088 L 78.00000000000001 275.5989537859421 L 78.00000000000001 275.5989537859421 L 79.00000000000001 274.9322871192755 L 79.00000000000001 274.9322871192755 L 80.00000000000003 274.2656204526088 L 80.00000000000003 274.2656204526088 L 81.00000000000003 273.5989537859421 L 81.00000000000003 273.5989537859421 L 82.00000000000003 272.93228711927543 L 82.00000000000003 272.93228711927543 L 83.00000000000003 272.2656204526088 L 83.00000000000003 272.2656204526088 L 84.00000000000003 271.5989537859421 L 84.00000000000003 271.5989537859421 L 85.00000000000003 270.93228711927543 L 85.00000000000003 270.93228711927543 L 86.00000000000004 270.2656204526088 L 86.00000000000004 270.2656204526088 L 87.00000000000006 269.5989537859421 L 87.00000000000006 269.5989537859421 L 88.00000000000006 268.93228711927543 L 88.00000000000006 268.93228711927543 L 89.00000000000006 268.2656204526088 L 89.00000000000006 268.2656204526088 L 90.00000000000006 267.5989537859421 L 90.00000000000006 267.5989537859421 L 91.00000000000006 266.93228711927543 L 91.00000000000006 266.93228711927543 L 92.00000000000006 266.2656204526088 L 92.00000000000006 266.2656204526088 L 93.00000000000007 265.5989537859421 L 93.00000000000007 265.5989537859421 L 94.00000000000009 264.93228711927543 L 94.00000000000009 264.93228711927543 L 95.00000000000009 264.26562045260874 L 95.00000000000009 264.26562045260874 L 96.00000000000009 263.5989537859421 L 96.00000000000009 263.5989537859421 L 97.00000000000009 262.93228711927543 L 97.00000000000009 262.93228711927543 L 98.00000000000009 262.26562045260874 L 98.00000000000009 262.26562045260874 L 99.0000000000001 261.5989537859421 L 99.0000000000001 261.5989537859421 L 100.0000000000001 260.93228711927543 L 100.0000000000001 260.93228711927543 L 101.0000000000001 260.26562045260874 L 101.0000000000001 260.26562045260874 L 102.00000000000011 259.59895378594206 L 102.00000000000011 259.59895378594206 L 103.00000000000011 258.93228711927543 L 103.00000000000011 258.93228711927543 L 104.00000000000011 258.26562045260874 L 104.00000000000011 258.26562045260874 L 105.00000000000011 257.59895378594206 L 105.00000000000011 257.59895378594206 L 106.00000000000013 256.93228711927543 L 106.00000000000013 256.93228711927543 L 107.00000000000013 256.26562045260874 L 107.00000000000013 256.26562045260874 L 108.00000000000013 255.59895378594206 L 108.00000000000013 255.59895378594206 L 109.00000000000014 254.9322871192754 L 109.00000000000014 254.9322871192754 L 110.00000000000014 254.26562045260874 L 110.00000000000014 254.26562045260874 L 111.00000000000014 253.59895378594206 L 111.00000000000014 253.59895378594206 L 112.00000000000014 252.9322871192754 L 112.00000000000014 252.9322871192754 L 113.00000000000016 252.26562045260874 L 113.00000000000016 252.26562045260874 L 114.00000000000016 251.59895378594206 L 114.00000000000016 251.59895378594206 L 115.00000000000016 250.9322871192754 L 115.00000000000016 250.9322871192754 L 116.00000000000017 250.26562045260874 L 116.00000000000017 250.26562045260874 L 117.00000000000017 249.59895378594206 L 117.00000000000017 249.59895378594206 L 118.00000000000017 248.9322871192754 L 118.00000000000017 248.9322871192754 L 119.00000000000017 248.26562045260872 L 119.00000000000017 248.26562045260872 L 120.00000000000018 247.59895378594206 L 120.00000000000018 247.59895378594206 L 121.00000000000018 246.93228711927537 L 121.00000000000018 246.93228711927537 L 122.00000000000018 246.26562045260872 L 122.00000000000018 246.26562045260872 L 123.0000000000002 245.59895378594206 L 123.0000000000002 245.59895378594206 L 124.0000000000002 244.93228711927537 L 124.0000000000002 244.93228711927537 L 125.0000000000002 244.26562045260872 L 125.0000000000002 244.26562045260872 L 126.0000000000002 243.59895378594203 L 126.0000000000002 243.59895378594203 L 127.00000000000021 242.93228711927537 L 127.00000000000021 242.93228711927537 L 128.00000000000023 242.2656204526087 L 128.00000000000023 242.2656204526087 L 129.00000000000023 241.59895378594203 L 129.00000000000023 241.59895378594203 L 130.00000000000023 240.93228711927537 L 130.00000000000023 240.93228711927537 L 131.00000000000023 240.2656204526087 L 131.00000000000023 240.2656204526087 L 132.00000000000023 239.59895378594203 L 132.00000000000023 239.59895378594203 L 133.00000000000023 238.93228711927537 L 133.00000000000023 238.93228711927537 L 134.00000000000023 238.2656204526087 L 134.00000000000023 238.2656204526087 L 135.00000000000023 237.598953785942 L 135.00000000000023 237.598953785942 L 136.00000000000023 236.93228711927537 L 136.00000000000023 236.93228711927537 L 137.00000000000026 236.2656204526087 L 137.00000000000026 236.2656204526087 L 138.00000000000026 235.598953785942 L 138.00000000000026 235.598953785942 L 139.00000000000026 234.93228711927534 L 139.00000000000026 234.93228711927534 L 140.00000000000026 234.2656204526087 L 140.00000000000026 234.2656204526087 L 141.00000000000028 233.598953785942 L 141.00000000000028 233.598953785942 L 142.00000000000028 232.93228711927534 L 142.00000000000028 232.93228711927534 L 143.00000000000028 232.2656204526087 L 143.00000000000028 232.2656204526087 L 144.00000000000028 231.598953785942 L 144.00000000000028 231.598953785942 L 145.00000000000028 230.93228711927534 L 145.00000000000028 230.93228711927534 L 146.00000000000028 230.2656204526087 L 146.00000000000028 230.2656204526087 L 147.00000000000028 229.598953785942 L 147.00000000000028 229.598953785942 L 148.00000000000028 228.93228711927532 L 148.00000000000028 228.93228711927532 L 149.00000000000028 228.26562045260866 L 149.00000000000028 228.26562045260866 L 150.00000000000028 227.598953785942 L 150.00000000000028 227.598953785942 L 151.0000000000003 226.93228711927532 L 151.0000000000003 226.93228711927532 L 152.0000000000003 226.26562045260866 L 152.0000000000003 226.26562045260866 L 153.0000000000003 225.598953785942 L 153.0000000000003 225.598953785942 L 154.0000000000003 224.93228711927532 L 154.0000000000003 224.93228711927532 L 155.00000000000034 224.26562045260866 L 155.00000000000034 224.26562045260866 L 156.00000000000034 223.59895378594197 L 156.00000000000034 223.59895378594197 L 157.00000000000034 222.93228711927532 L 157.00000000000034 222.93228711927532 L 158.00000000000034 222.26562045260866 L 158.00000000000034 222.26562045260866 L 159.00000000000034 221.59895378594197 L 159.00000000000034 221.59895378594197 L 160.00000000000034 220.93228711927532 L 160.00000000000034 220.93228711927532 L 161.00000000000034 220.26562045260863 L 161.00000000000034 220.26562045260863 L 162.00000000000034 219.59895378594194 L 162.00000000000034 219.59895378594194 L 163.00000000000034 218.93228711927532 L 163.00000000000034 218.93228711927532 L 164.00000000000034 218.26562045260863 L 164.00000000000034 218.26562045260863 L 165.00000000000034 217.59895378594194 L 165.00000000000034 217.59895378594194 L 166.00000000000034 216.93228711927532 L 166.00000000000034 216.93228711927532 L 167.0000000000004 216.26562045260863 L 167.0000000000004 216.26562045260863 L 168.0000000000004 215.59895378594194 L 168.0000000000004 215.59895378594194 L 169.0000000000004 214.9322871192753 L 169.0000000000004 214.9322871192753 L 170.0000000000004 214.26562045260863 L 170.0000000000004 214.26562045260863 L 171.0000000000004 213.59895378594194 L 171.0000000000004 213.59895378594194 L 172.0000000000004 212.9322871192753 L 172.0000000000004 212.9322871192753 L 173.0000000000004 212.26562045260863 L 173.0000000000004 212.26562045260863 L 174.0000000000004 211.59895378594194 L 174.0000000000004 211.59895378594194 L 175.0000000000004 210.93228711927526 L 175.0000000000004 210.93228711927526 L 176.0000000000004 210.26562045260863 L 176.0000000000004 210.26562045260863 L 177.0000000000004 209.59895378594194 L 177.0000000000004 209.59895378594194 L 178.0000000000004 208.93228711927526 L 178.0000000000004 208.93228711927526 L 179.0000000000004 208.26562045260863 L 179.0000000000004 208.26562045260863 L 180.0000000000004 207.59895378594194 L 180.0000000000004 207.59895378594194 L 181.00000000000045 206.93228711927526 L 181.00000000000045 206.93228711927526 L 182.00000000000045 206.2656204526086 L 182.00000000000045 206.2656204526086 L 183.00000000000045 205.59895378594194 L 183.00000000000045 205.59895378594194 L 184.00000000000045 204.93228711927526 L 184.00000000000045 204.93228711927526 L 185.00000000000045 204.2656204526086 L 185.00000000000045 204.2656204526086 L 186.00000000000045 203.59895378594192 L 186.00000000000045 203.59895378594192 L 187.00000000000045 202.93228711927526 L 187.00000000000045 202.93228711927526 L 188.00000000000045 202.26562045260857 L 188.00000000000045 202.26562045260857 L 189.00000000000045 201.59895378594192 L 189.00000000000045 201.59895378594192 L 190.00000000000045 200.93228711927526 L 190.00000000000045 200.93228711927526 L 191.00000000000045 200.26562045260857 L 191.00000000000045 200.26562045260857 L 192.00000000000045 199.5989537859419 L 192.00000000000045 199.5989537859419 L 193.00000000000045 198.93228711927526 L 193.00000000000045 198.93228711927526 L 194.00000000000045 198.26562045260857 L 194.00000000000045 198.26562045260857 L 195.0000000000005 197.5989537859419 L 195.0000000000005 197.5989537859419 L 196.0000000000005 196.93228711927526 L 196.0000000000005 196.93228711927526 L 197.0000000000005 196.26562045260857 L 197.0000000000005 196.26562045260857 L 198.0000000000005 195.5989537859419 L 198.0000000000005 195.5989537859419 L 199.0000000000005 194.93228711927523 L 199.0000000000005 194.93228711927523 L 200.0000000000005 194.26562045260857 L 200.0000000000005 194.26562045260857 L 201.0000000000005 193.5989537859419 L 201.0000000000005 193.5989537859419 L 202.0000000000005 192.93228711927523 L 202.0000000000005 192.93228711927523 L 203.0000000000005 192.26562045260857 L 203.0000000000005 192.26562045260857 L 204.0000000000005 191.5989537859419 L 204.0000000000005 191.5989537859419 L 205.0000000000005 190.9322871192752 L 205.0000000000005 190.9322871192752 L 206.0000000000005 190.26562045260857 L 206.0000000000005 190.26562045260857 L 207.0000000000005 189.5989537859419 L 207.0000000000005 189.5989537859419 L 208.0000000000005 188.9322871192752 L 208.0000000000005 188.9322871192752 L 209.00000000000057 188.26562045260854 L 209.00000000000057 188.26562045260854 L 210.00000000000057 187.5989537859419 L 210.00000000000057 187.5989537859419 L 211.00000000000057 186.9322871192752 L 211.00000000000057 186.9322871192752 L 212.00000000000057 186.26562045260854 L 212.00000000000057 186.26562045260854 L 213.00000000000057 185.59895378594186 L 213.00000000000057 185.59895378594186 L 214.00000000000057 184.9322871192752 L 214.00000000000057 184.9322871192752 L 215.00000000000057 184.26562045260854 L 215.00000000000057 184.26562045260854 L 216.00000000000057 183.59895378594186 L 216.00000000000057 183.59895378594186 L 217.00000000000057 182.9322871192752 L 217.00000000000057 182.9322871192752 L 218.00000000000057 182.26562045260852 L 218.00000000000057 182.26562045260852 L 219.00000000000057 181.59895378594186 L 219.00000000000057 181.59895378594186 L 220.00000000000057 180.9322871192752 L 220.00000000000057 180.9322871192752 L 221.00000000000057 180.26562045260852 L 221.00000000000057 180.26562045260852 L 222.00000000000057 179.59895378594183 L 222.00000000000057 179.59895378594183 L 223.00000000000063 178.93228711927517 L 223.00000000000063 178.93228711927517 L 224.00000000000063 178.26562045260852 L 224.00000000000063 178.26562045260852 L 225.00000000000063 177.59895378594183 L 225.00000000000063 177.59895378594183 L 226.00000000000063 176.93228711927517 L 226.00000000000063 176.93228711927517 L 227.00000000000063 176.26562045260852 L 227.00000000000063 176.26562045260852 L 228.00000000000063 175.59895378594183 L 228.00000000000063 175.59895378594183 L 229.00000000000063 174.93228711927517 L 229.00000000000063 174.93228711927517 L 230.00000000000063 174.26562045260852 L 230.00000000000063 174.26562045260852 L 231.00000000000063 173.59895378594183 L 231.00000000000063 173.59895378594183 L 232.00000000000063 172.93228711927517 L 232.00000000000063 172.93228711927517 L 233.00000000000063 172.26562045260852 L 233.00000000000063 172.26562045260852 L 234.00000000000063 171.59895378594183 L 234.00000000000063 171.59895378594183 L 235.00000000000063 170.93228711927517 L 235.00000000000063 170.93228711927517 L 236.00000000000063 170.2656204526085 L 236.00000000000063 170.2656204526085 L 237.00000000000068 169.59895378594183 L 237.00000000000068 169.59895378594183 L 238.00000000000068 168.93228711927514 L 238.00000000000068 168.93228711927514 L 239.00000000000068 168.2656204526085 L 239.00000000000068 168.2656204526085 L 240.00000000000068 167.5989537859418 L 240.00000000000068 167.5989537859418 L 241.00000000000068 166.93228711927514 L 241.00000000000068 166.93228711927514 L 242.00000000000068 166.2656204526085 L 242.00000000000068 166.2656204526085 L 243.00000000000068 165.5989537859418 L 243.00000000000068 165.5989537859418 L 244.00000000000068 164.93228711927514 L 244.00000000000068 164.93228711927514 L 245.00000000000068 164.2656204526085 L 245.00000000000068 164.2656204526085 L 246.00000000000068 163.5989537859418 L 246.00000000000068 163.5989537859418 L 247.00000000000068 162.93228711927514 L 247.00000000000068 162.93228711927514 L 248.00000000000068 162.2656204526085 L 248.00000000000068 162.2656204526085 L 249.00000000000068 161.5989537859418 L 249.00000000000068 161.5989537859418 L 250.00000000000068 160.93228711927512 L 250.00000000000068 160.93228711927512 L 251.00000000000074 160.26562045260846 L 251.00000000000074 160.26562045260846 L 252.00000000000074 159.59895378594177 L 252.00000000000074 159.59895378594177 L 253.00000000000074 158.93228711927512 L 253.00000000000074 158.93228711927512 L 254.00000000000074 158.26562045260846 L 254.00000000000074 158.26562045260846 L 255.00000000000074 157.59895378594177 L 255.00000000000074 157.59895378594177 L 256.00000000000074 156.93228711927512 L 256.00000000000074 156.93228711927512 L 257.00000000000074 156.26562045260846 L 257.00000000000074 156.26562045260846 L 258.00000000000074 155.59895378594177 L 258.00000000000074 155.59895378594177 L 259.00000000000074 154.93228711927512 L 259.00000000000074 154.93228711927512 L 260.00000000000074 154.26562045260846 L 260.00000000000074 154.26562045260846 L 261.00000000000074 153.59895378594177 L 261.00000000000074 153.59895378594177 L 262.00000000000074 152.93228711927512 L 262.00000000000074 152.93228711927512 L 263.00000000000074 152.26562045260843 L 263.00000000000074 152.26562045260843 L 264.00000000000074 151.59895378594177 L 264.00000000000074 151.59895378594177 L 265.00000000000074 150.9322871192751 L 265.00000000000074 150.9322871192751 L 266.0000000000008 150.26562045260843 L 266.0000000000008 150.26562045260843 L 267.0000000000008 149.59895378594175 L 267.0000000000008 149.59895378594175 L 268.0000000000008 148.9322871192751 L 268.0000000000008 148.9322871192751 L 269.0000000000008 148.26562045260843 L 269.0000000000008 148.26562045260843 L 270.0000000000008 147.59895378594175 L 270.0000000000008 147.59895378594175 L 271.0000000000008 146.93228711927512 L 271.0000000000008 146.93228711927512 L 272.0000000000008 146.26562045260843 L 272.0000000000008 146.26562045260843 L 273.0000000000008 145.59895378594175 L 273.0000000000008 145.59895378594175 L 274.0000000000008 144.9322871192751 L 274.0000000000008 144.9322871192751 L 275.0000000000008 144.26562045260843 L 275.0000000000008 144.26562045260843 L 276.0000000000008 143.59895378594175 L 276.0000000000008 143.59895378594175 L 277.0000000000008 142.9322871192751 L 277.0000000000008 142.9322871192751 L 278.0000000000008 142.2656204526084 L 278.0000000000008 142.2656204526084 L 279.0000000000008 141.59895378594175 L 279.0000000000008 141.59895378594175 L 280.00000000000085 140.9322871192751 L 280.00000000000085 140.9322871192751 L 281.00000000000085 140.2656204526084 L 281.00000000000085 140.2656204526084 L 282.00000000000085 139.59895378594172 L 282.00000000000085 139.59895378594172 L 283.00000000000085 138.9322871192751 L 283.00000000000085 138.9322871192751 L 284.00000000000085 138.2656204526084 L 284.00000000000085 138.2656204526084 L 285.00000000000085 137.59895378594172 L 285.00000000000085 137.59895378594172 L 286.00000000000085 136.9322871192751 L 286.00000000000085 136.9322871192751 L 287.00000000000085 136.2656204526084 L 287.00000000000085 136.2656204526084 L 288.00000000000085 135.59895378594172 L 288.00000000000085 135.59895378594172 L 289.00000000000085 134.93228711927506 L 289.00000000000085 134.93228711927506 L 290.0000000000009 134.2656204526084 L 290.0000000000009 134.2656204526084 L 291.0000000000009 133.59895378594172 L 291.0000000000009 133.59895378594172 L 292.0000000000009 132.93228711927506 L 292.0000000000009 132.93228711927506 L 293.0000000000009 132.26562045260837 L 293.0000000000009 132.26562045260837 L 294.0000000000009 131.59895378594172 L 294.0000000000009 131.59895378594172 L 295.0000000000009 130.93228711927506 L 295.0000000000009 130.93228711927506 L 296.0000000000009 130.26562045260837 L 296.0000000000009 130.26562045260837 L 297.0000000000009 129.5989537859417 L 297.0000000000009 129.5989537859417 L 298.0000000000009 128.93228711927506 L 298.0000000000009 128.93228711927506 L 299.0000000000009 128.26562045260837 L 299.0000000000009 128.26562045260837 L 300.0000000000009 127.59895378594169 L 300.0000000000009 127.59895378594169 L 301.0000000000009 126.93228711927506 L 301.0000000000009 126.93228711927506 L 302.0000000000009 126.26562045260837 L 302.0000000000009 126.26562045260837 L 303.0000000000009 125.59895378594169 L 303.0000000000009 125.59895378594169 L 304.00000000000097 124.93228711927503 L 304.00000000000097 124.93228711927503 L 305.00000000000097 124.26562045260837 L 305.00000000000097 124.26562045260837 L 306.00000000000097 123.59895378594169 L 306.00000000000097 123.59895378594169 L 307.00000000000097 122.93228711927503 L 307.00000000000097 122.93228711927503 L 308.00000000000097 122.26562045260835 L 308.00000000000097 122.26562045260835 L 309.00000000000097 121.59895378594169 L 309.00000000000097 121.59895378594169 L 310.00000000000097 120.93228711927503 L 310.00000000000097 120.93228711927503 L 311.00000000000097 120.26562045260835 L 311.00000000000097 120.26562045260835 L 312.00000000000097 119.59895378594166 L 312.00000000000097 119.59895378594166 L 313.00000000000097 118.93228711927503 L 313.00000000000097 118.93228711927503 L 314.00000000000097 118.26562045260835 L 314.00000000000097 118.26562045260835 L 315.00000000000097 117.59895378594166 L 315.00000000000097 117.59895378594166 L 316.00000000000097 116.93228711927503 L 316.00000000000097 116.93228711927503 L 317.00000000000097 116.26562045260835 L 317.00000000000097 116.26562045260835 L 318.000000000001 115.59895378594166 L 318.000000000001 115.59895378594166 L 319.000000000001 114.932287119275 L 319.000000000001 114.932287119275 L 320.000000000001 114.26562045260832 L 320.000000000001 114.26562045260832 L 321.000000000001 113.59895378594166 L 321.000000000001 113.59895378594166 L 322.000000000001 112.932287119275 L 322.000000000001 112.932287119275 L 323.000000000001 112.26562045260832 L 323.000000000001 112.26562045260832 L 324.000000000001 111.59895378594163 L 324.000000000001 111.59895378594163 L 325.000000000001 110.932287119275 L 325.000000000001 110.932287119275 L 326.000000000001 110.26562045260832 L 326.000000000001 110.26562045260832 L 327.000000000001 109.59895378594163 L 327.000000000001 109.59895378594163 L 328.000000000001 108.932287119275 L 328.000000000001 108.932287119275 L 329.000000000001 108.26562045260832 L 329.000000000001 108.26562045260832 L 330.000000000001 107.59895378594163 L 330.000000000001 107.59895378594163 L 331.000000000001 106.93228711927497 L 331.000000000001 106.93228711927497 L 332.0000000000011 106.26562045260832 L 332.0000000000011 106.26562045260832 L 333.0000000000011 105.59895378594163 L 333.0000000000011 105.59895378594163 L 334.0000000000011 104.93228711927497 L 334.0000000000011 104.93228711927497 L 335.0000000000011 104.26562045260829 L 335.0000000000011 104.26562045260829 L 336.0000000000011 103.59895378594163 L 336.0000000000011 103.59895378594163 L 337.0000000000011 102.93228711927497 L 337.0000000000011 102.93228711927497 L 338.0000000000011 102.26562045260829 L 338.0000000000011 102.26562045260829 L 339.0000000000011 101.5989537859416 L 339.0000000000011 101.5989537859416 L 340.0000000000011 100.93228711927497 L 340.0000000000011 100.93228711927497 L 341.0000000000011 100.26562045260829 L 341.0000000000011 100.26562045260829 L 342.0000000000011 99.5989537859416 L 342.0000000000011 99.5989537859416 L 343.0000000000011 98.93228711927497 L 343.0000000000011 98.93228711927497 L 344.0000000000011 98.26562045260829 L 344.0000000000011 98.26562045260829 L 345.0000000000011 97.5989537859416 L 345.0000000000011 97.5989537859416 L 346.00000000000114 96.93228711927495 L 346.00000000000114 96.93228711927495 L 347.00000000000114 96.26562045260829 L 347.00000000000114 96.26562045260829 L 348.00000000000114 95.5989537859416 L 348.00000000000114 95.5989537859416 L 349.0000000000011 94.93228711927495 L 349.0000000000011 94.93228711927495 L 350.0000000000011 94.26562045260832 L 350.0000000000011 94.26562045260832 L 351.0000000000011 93.59895378594163 L 351.0000000000011 93.59895378594163 L 352.0000000000011 92.93228711927495 L 352.0000000000011 92.93228711927495 L 353.0000000000011 92.26562045260829 L 353.0000000000011 92.26562045260829 L 354.0000000000011 91.59895378594163 L 354.0000000000011 91.59895378594163 L 355.00000000000114 90.93228711927495 L 355.00000000000114 90.93228711927495 L 356.00000000000114 90.26562045260829 L 356.00000000000114 90.26562045260829 L 357.00000000000114 89.5989537859416 L 357.00000000000114 89.5989537859416 L 358.00000000000114 88.93228711927495 L 358.00000000000114 88.93228711927495 L 359.00000000000114 88.26562045260829" stroke-opacity="0.6980392156862745" stroke-linecap="round" stroke-linejoin="round" stroke-miterlimit="10" stroke-width="2.5"/><path fill="none" stroke="rgb(0,0,255)" paint-order="fill stroke markers" d=" M 0 483.3978572035934 L 0 483.3978572035934 L 1 477.6756349813712 L 1 477.6756349813712 L 2 471.953412759149 L 2 471.953412759149 L 2.9999999999999964 466.23119053692676 L 2.9999999999999964 466.23119053692676 L 3.9999999999999964 460.50896831470453 L 3.9999999999999964 460.50896831470453 L 4.9999999999999964 454.7867460924823 L 4.9999999999999964 454.7867460924823 L 5.9999999999999964 449.06452387026013 L 5.9999999999999964 449.06452387026013 L 6.9999999999999964 443.3423016480379 L 6.9999999999999964 443.3423016480379 L 7.9999999999999964 437.6200794258157 L 7.9999999999999964 437.6200794258157 L 8.999999999999996 431.8978572035935 L 8.999999999999996 431.8978572035935 L 9.999999999999996 426.1756349813713 L 9.999999999999996 426.1756349813713 L 10.999999999999996 420.45341275914905 L 10.999999999999996 420.45341275914905 L 11.999999999999996 414.7311905369269 L 11.999999999999996 414.7311905369269 L 12.999999999999993 409.0089683147046 L 12.999999999999993 409.0089683147046 L 13.999999999999993 403.2867460924824 L 13.999999999999993 403.2867460924824 L 14.999999999999993 397.5645238702602 L 14.999999999999993 397.5645238702602 L 15.999999999999993 391.84230164803796 L 15.999999999999993 391.84230164803796 L 16.999999999999993 386.1200794258158 L 16.999999999999993 386.1200794258158 L 17.999999999999993 380.39785720359356 L 17.999999999999993 380.39785720359356 L 18.999999999999993 374.67563498137133 L 18.999999999999993 374.67563498137133 L 19.999999999999993 368.9534127591491 L 19.999999999999993 368.9534127591491 L 20.999999999999993 363.23119053692693 L 20.999999999999993 363.23119053692693 L 21.999999999999993 357.5089683147047 L 21.999999999999993 357.5089683147047 L 22.999999999999993 351.7867460924825 L 22.999999999999993 351.7867460924825 L 23.99999999999999 346.06452387026025 L 23.99999999999999 346.06452387026025 L 24.99999999999999 340.3423016480381 L 24.99999999999999 340.3423016480381 L 25.99999999999999 334.62007942581585 L 25.99999999999999 334.62007942581585 L 26.99999999999999 328.8978572035936 L 26.99999999999999 328.8978572035936 L 27.99999999999999 323.1756349813714 L 27.99999999999999 323.1756349813714 L 28.99999999999999 317.4534127591492 L 28.99999999999999 317.4534127591492 L 29.99999999999999 311.731190536927 L 29.99999999999999 311.731190536927 L 30.99999999999999 306.00896831470476 L 30.99999999999999 306.00896831470476 L 31.99999999999999 300.28674609248253 L 31.99999999999999 300.28674609248253 L 32.999999999999986 294.5645238702603 L 32.999999999999986 294.5645238702603 L 33.999999999999986 288.84230164803813 L 33.999999999999986 288.84230164803813 L 34.999999999999986 283.1200794258159 L 34.999999999999986 283.1200794258159 L 35.999999999999986 277.3978572035937 L 35.999999999999986 277.3978572035937 L 36.999999999999986 271.67563498137145 L 36.999999999999986 271.67563498137145 L 37.999999999999986 265.9534127591493 L 37.999999999999986 265.9534127591493 L 38.999999999999986 260.23119053692704 L 38.999999999999986 260.23119053692704 L 39.999999999999986 254.50896831470482 L 39.999999999999986 254.50896831470482 L 40.999999999999986 248.78674609248262 L 40.999999999999986 248.78674609248262 L 41.999999999999986 243.06452387026042 L 41.999999999999986 243.06452387026042 L 42.999999999999986 237.3423016480382 L 42.999999999999986 237.3423016480382 L 43.999999999999986 231.62007942581596 L 43.999999999999986 231.62007942581596 L 44.999999999999986 225.89785720359373 L 44.999999999999986 225.89785720359373 L 45.999999999999986 220.17563498137156 L 45.999999999999986 220.17563498137156 L 46.999999999999986 214.45341275914933 L 46.999999999999986 214.45341275914933 L 47.999999999999986 208.7311905369271 L 47.999999999999986 208.7311905369271 L 48.999999999999986 203.0089683147049 L 48.999999999999986 203.0089683147049 L 49.999999999999986 197.28674609248267 L 49.999999999999986 197.28674609248267 L 50.999999999999986 191.56452387026044 L 50.999999999999986 191.56452387026044 L 51.999999999999986 185.84230164803824 L 51.999999999999986 185.84230164803824 L 52.999999999999986 180.12007942581602 L 52.999999999999986 180.12007942581602 L 53.999999999999986 174.39785720359382 L 53.999999999999986 174.39785720359382 L 54.999999999999986 168.6756349813716 L 54.999999999999986 168.6756349813716 L 55.999999999999986 162.9534127591494 L 55.999999999999986 162.9534127591494 L 56.999999999999986 157.23119053692716 L 56.999999999999986 157.23119053692716 L 57.999999999999986 151.50896831470496 L 57.999999999999986 151.50896831470496 L 58.999999999999986 145.78674609248276 L 58.999999999999986 145.78674609248276 L 59.999999999999986 140.06452387026053 L 59.999999999999986 140.06452387026053 L 60.999999999999986 134.3423016480383 L 60.999999999999986 134.3423016480383 L 61.999999999999986 128.6200794258161 L 61.999999999999986 128.6200794258161 L 62.99999999999998 122.89785720359387 L 62.99999999999998 122.89785720359387 L 63.99999999999998 117.17563498137167 L 63.99999999999998 117.17563498137167 L 64.99999999999997 111.45341275914947 L 64.99999999999997 111.45341275914947 L 65.99999999999997 105.73119053692727 L 65.99999999999997 105.73119053692727 L 66.99999999999997 100.00896831470502 L 66.99999999999997 100.00896831470502 L 67.99999999999997 94.28674609248282 L 67.99999999999997 94.28674609248282 L 68.99999999999997 88.56452387026062 L 68.99999999999997 88.56452387026062 L 69.99999999999997 82.84230164803839 L 69.99999999999997 82.84230164803839 L 70.99999999999999 77.12007942581616 L 70.99999999999999 77.12007942581616 L 71.99999999999999 71.3978572035939 L 71.99999999999999 71.3978572035939 L 73 65.67563498137167 L 73 65.67563498137167 L 74 59.953412759149415 L 74 59.953412759149415 L 75 54.23119053692719 L 75 54.23119053692719 L 76 48.50896831470493 L 76 48.50896831470493 L 77 42.7867460924827 L 77 42.7867460924827 L 78.00000000000001 37.06452387026047 L 78.00000000000001 37.06452387026047 L 79.00000000000001 31.342301648038244 L 79.00000000000001 31.342301648038244 L 80.00000000000003 25.620079425816016 L 80.00000000000003 25.620079425816016 L 81.00000000000003 19.89785720359373 L 81.00000000000003 19.89785720359373 L 82.00000000000003 14.175634981371502 L 82.00000000000003 14.175634981371502 L 83.00000000000003 8.453412759149273 L 83.00000000000003 8.453412759149273 L 84.00000000000003 2.731190536927045 L 84.00000000000003 2.731190536927045 L 85.00000000000003 -2.9910316852952405 L 85.00000000000003 -2.9910316852952405 L 86.00000000000004 -8.713253907517412 L 86.00000000000004 -8.713253907517412 L 87.00000000000006 -14.43547612973964 L 87.00000000000006 -14.43547612973964 L 88.00000000000006 -20.157698351961926 L 88.00000000000006 -20.157698351961926 L 89.00000000000006 -25.879920574184155 L 89.00000000000006 -25.879920574184155 L 90.00000000000006 -31.602142796406383 L 90.00000000000006 -31.602142796406383 L 91.00000000000006 -37.32436501862867 L 91.00000000000006 -37.32436501862867 L 92.00000000000006 -43.0465872408509 L 92.00000000000006 -43.0465872408509 L 93.00000000000007 -48.768809463073126 L 93.00000000000007 -48.768809463073126 L 94.00000000000009 -54.491031685295354 L 94.00000000000009 -54.491031685295354 L 95.00000000000009 -60.21325390751764 L 95.00000000000009 -60.21325390751764 L 96.00000000000009 -65.93547612973987 L 96.00000000000009 -65.93547612973987 L 97.00000000000009 -71.6576983519621 L 97.00000000000009 -71.6576983519621 L 98.00000000000009 -77.37992057418433 L 98.00000000000009 -77.37992057418433 L 99.0000000000001 -83.10214279640661 L 99.0000000000001 -83.10214279640661 L 100.0000000000001 -88.82436501862878 L 100.0000000000001 -88.82436501862878 L 101.0000000000001 -94.54658724085101 L 101.0000000000001 -94.54658724085101 L 102.00000000000011 -100.26880946307324 L 102.00000000000011 -100.26880946307324 L 103.00000000000011 -105.99103168529547 L 103.00000000000011 -105.99103168529547 L 104.00000000000011 -111.71325390751775 L 104.00000000000011 -111.71325390751775 L 105.00000000000011 -117.43547612973998 L 105.00000000000011 -117.43547612973998 L 106.00000000000013 -123.15769835196221 L 106.00000000000013 -123.15769835196221 L 107.00000000000013 -128.87992057418444 L 107.00000000000013 -128.87992057418444 L 108.00000000000013 -134.60214279640672 L 108.00000000000013 -134.60214279640672 L 109.00000000000014 -140.32436501862895 L 109.00000000000014 -140.32436501862895 L 110.00000000000014 -146.04658724085118 L 110.00000000000014 -146.04658724085118 L 111.00000000000014 -151.7688094630734 L 111.00000000000014 -151.7688094630734 L 112.00000000000014 -157.4910316852957 L 112.00000000000014 -157.4910316852957 L 113.00000000000016 -163.21325390751792 L 113.00000000000016 -163.21325390751792 L 114.00000000000016 -168.93547612974015 L 114.00000000000016 -168.93547612974015 L 115.00000000000016 -174.65769835196238 L 115.00000000000016 -174.65769835196238 L 116.00000000000017 -180.37992057418467 L 116.00000000000017 -180.37992057418467 L 117.00000000000017 -186.1021427964069 L 117.00000000000017 -186.1021427964069 L 118.00000000000017 -191.82436501862907 L 118.00000000000017 -191.82436501862907 L 119.00000000000017 -197.5465872408513 L 119.00000000000017 -197.5465872408513 L 120.00000000000018 -203.26880946307352 L 120.00000000000018 -203.26880946307352 L 121.00000000000018 -208.9910316852958 L 121.00000000000018 -208.9910316852958 L 122.00000000000018 -214.7132539075181 L 122.00000000000018 -214.7132539075181 L 123.0000000000002 -220.43547612974027 L 123.0000000000002 -220.43547612974027 L 124.0000000000002 -226.15769835196255 L 124.0000000000002 -226.15769835196255 L 125.0000000000002 -231.87992057418472 L 125.0000000000002 -231.87992057418472 L 126.0000000000002 -237.602142796407 L 126.0000000000002 -237.602142796407 L 127.00000000000021 -243.3243650186293 L 127.00000000000021 -243.3243650186293 L 128.00000000000023 -249.04658724085147 L 128.00000000000023 -249.04658724085147 L 129.00000000000023 -254.76880946307375 L 129.00000000000023 -254.76880946307375 L 130.00000000000023 -260.49103168529604 L 130.00000000000023 -260.49103168529604 L 131.00000000000023 -266.2132539075182 L 131.00000000000023 -266.2132539075182 L 132.00000000000023 -271.9354761297405 L 132.00000000000023 -271.9354761297405 L 133.00000000000023 -277.65769835196267 L 133.00000000000023 -277.65769835196267 L 134.00000000000023 -283.37992057418495 L 134.00000000000023 -283.37992057418495 L 135.00000000000023 -289.10214279640724 L 135.00000000000023 -289.10214279640724 L 136.00000000000023 -294.8243650186294 L 136.00000000000023 -294.8243650186294 L 137.00000000000026 -300.5465872408516 L 137.00000000000026 -300.5465872408516 L 138.00000000000026 -306.26880946307386 L 138.00000000000026 -306.26880946307386 L 139.00000000000026 -311.99103168529615 L 139.00000000000026 -311.99103168529615 L 140.00000000000026 -317.7132539075183 L 140.00000000000026 -317.7132539075183 L 141.00000000000028 -323.4354761297406 L 141.00000000000028 -323.4354761297406 L 142.00000000000028 -329.1576983519629 L 142.00000000000028 -329.1576983519629 L 143.00000000000028 -334.87992057418506 L 143.00000000000028 -334.87992057418506 L 144.00000000000028 -340.60214279640735 L 144.00000000000028 -340.60214279640735 L 145.00000000000028 -346.3243650186295 L 145.00000000000028 -346.3243650186295 L 146.00000000000028 -352.0465872408517 L 146.00000000000028 -352.0465872408517 L 147.00000000000028 -357.7688094630741 L 147.00000000000028 -357.7688094630741 L 148.00000000000028 -363.49103168529626 L 148.00000000000028 -363.49103168529626 L 149.00000000000028 -369.21325390751855 L 149.00000000000028 -369.21325390751855 L 150.00000000000028 -374.9354761297407 L 150.00000000000028 -374.9354761297407 L 151.0000000000003 -380.657698351963 L 151.0000000000003 -380.657698351963 L 152.0000000000003 -386.3799205741852 L 152.0000000000003 -386.3799205741852 L 153.0000000000003 -392.10214279640746 L 153.0000000000003 -392.10214279640746 L 154.0000000000003 -397.82436501862963 L 154.0000000000003 -397.82436501862963 L 155.00000000000034 -403.54658724085203 L 155.00000000000034 -403.54658724085203 L 156.00000000000034 -409.2688094630742 L 156.00000000000034 -409.2688094630742 L 157.00000000000034 -414.9910316852965 L 157.00000000000034 -414.9910316852965 L 158.00000000000034 -420.71325390751866 L 158.00000000000034 -420.71325390751866 L 159.00000000000034 -426.43547612974095 L 159.00000000000034 -426.43547612974095 L 160.00000000000034 -432.1576983519631 L 160.00000000000034 -432.1576983519631 L 161.00000000000034 -437.8799205741854 L 161.00000000000034 -437.8799205741854 L 162.00000000000034 -443.6021427964076 L 162.00000000000034 -443.6021427964076 L 163.00000000000034 -449.32436501863 L 163.00000000000034 -449.32436501863 L 164.00000000000034 -455.04658724085215 L 164.00000000000034 -455.04658724085215 L 165.00000000000034 -460.7688094630743 L 165.00000000000034 -460.7688094630743 L 166.00000000000034 -466.4910316852966 L 166.00000000000034 -466.4910316852966 L 167.0000000000004 -472.2132539075188 L 167.0000000000004 -472.2132539075188 L 168.0000000000004 -477.93547612974106 L 168.0000000000004 -477.93547612974106 L 169.0000000000004 -483.65769835196323 L 169.0000000000004 -483.65769835196323 L 170.0000000000004 -489.3799205741855 L 170.0000000000004 -489.3799205741855 L 171.0000000000004 -495.1021427964077 L 171.0000000000004 -495.1021427964077 L 172.0000000000004 -500.8243650186301 L 172.0000000000004 -500.8243650186301 L 173.0000000000004 -506.54658724085226 L 173.0000000000004 -506.54658724085226 L 174.0000000000004 -512.2688094630746 L 174.0000000000004 -512.2688094630746 L 175.0000000000004 -517.9910316852968 L 175.0000000000004 -517.9910316852968 L 176.0000000000004 -523.713253907519 L 176.0000000000004 -523.713253907519 L 177.0000000000004 -529.4354761297411 L 177.0000000000004 -529.4354761297411 L 178.0000000000004 -535.1576983519635 L 178.0000000000004 -535.1576983519635 L 179.0000000000004 -540.8799205741857 L 179.0000000000004 -540.8799205741857 L 180.0000000000004 -546.6021427964081 L 180.0000000000004 -546.6021427964081 L 181.00000000000045 -552.3243650186303 L 181.00000000000045 -552.3243650186303 L 182.00000000000045 -558.0465872408524 L 182.00000000000045 -558.0465872408524 L 183.00000000000045 -563.7688094630746 L 183.00000000000045 -563.7688094630746 L 184.00000000000045 -569.4910316852968 L 184.00000000000045 -569.4910316852968 L 185.00000000000045 -575.2132539075192 L 185.00000000000045 -575.2132539075192 L 186.00000000000045 -580.9354761297413 L 186.00000000000045 -580.9354761297413 L 187.00000000000045 -586.6576983519635 L 187.00000000000045 -586.6576983519635 L 188.00000000000045 -592.3799205741859 L 188.00000000000045 -592.3799205741859 L 189.00000000000045 -598.1021427964081 L 189.00000000000045 -598.1021427964081 L 190.00000000000045 -603.8243650186303 L 190.00000000000045 -603.8243650186303 L 191.00000000000045 -609.5465872408527 L 191.00000000000045 -609.5465872408527 L 192.00000000000045 -615.2688094630748 L 192.00000000000045 -615.2688094630748 L 193.00000000000045 -620.991031685297 L 193.00000000000045 -620.991031685297 L 194.00000000000045 -626.7132539075192 L 194.00000000000045 -626.7132539075192 L 195.0000000000005 -632.4354761297416 L 195.0000000000005 -632.4354761297416 L 196.0000000000005 -638.1576983519637 L 196.0000000000005 -638.1576983519637 L 197.0000000000005 -643.8799205741861 L 197.0000000000005 -643.8799205741861 L 198.0000000000005 -649.6021427964083 L 198.0000000000005 -649.6021427964083 L 199.0000000000005 -655.3243650186305 L 199.0000000000005 -655.3243650186305 L 200.0000000000005 -661.0465872408527 L 200.0000000000005 -661.0465872408527 L 201.0000000000005 -666.7688094630748 L 201.0000000000005 -666.7688094630748 L 202.0000000000005 -672.4910316852972 L 202.0000000000005 -672.4910316852972 L 203.0000000000005 -678.2132539075194 L 203.0000000000005 -678.2132539075194 L 204.0000000000005 -683.9354761297418 L 204.0000000000005 -683.9354761297418 L 205.0000000000005 -689.657698351964 L 205.0000000000005 -689.657698351964 L 206.0000000000005 -695.3799205741861 L 206.0000000000005 -695.3799205741861 L 207.0000000000005 -701.1021427964083 L 207.0000000000005 -701.1021427964083 L 208.0000000000005 -706.8243650186307 L 208.0000000000005 -706.8243650186307 L 209.00000000000057 -712.5465872408529 L 209.00000000000057 -712.5465872408529 L 210.00000000000057 -718.2688094630751 L 210.00000000000057 -718.2688094630751 L 211.00000000000057 -723.9910316852972 L 211.00000000000057 -723.9910316852972 L 212.00000000000057 -729.7132539075196 L 212.00000000000057 -729.7132539075196 L 213.00000000000057 -735.4354761297418 L 213.00000000000057 -735.4354761297418 L 214.00000000000057 -741.157698351964 L 214.00000000000057 -741.157698351964 L 215.00000000000057 -746.8799205741861 L 215.00000000000057 -746.8799205741861 L 216.00000000000057 -752.6021427964085 L 216.00000000000057 -752.6021427964085 L 217.00000000000057 -758.3243650186307 L 217.00000000000057 -758.3243650186307 L 218.00000000000057 -764.0465872408531 L 218.00000000000057 -764.0465872408531 L 219.00000000000057 -769.7688094630753 L 219.00000000000057 -769.7688094630753 L 220.00000000000057 -775.4910316852975 L 220.00000000000057 -775.4910316852975 L 221.00000000000057 -781.2132539075196 L 221.00000000000057 -781.2132539075196 L 222.00000000000057 -786.9354761297418 L 222.00000000000057 -786.9354761297418 L 223.00000000000063 -792.6576983519642 L 223.00000000000063 -792.6576983519642 L 224.00000000000063 -798.3799205741864 L 224.00000000000063 -798.3799205741864 L 225.00000000000063 -804.1021427964088 L 225.00000000000063 -804.1021427964088 L 226.00000000000063 -809.8243650186309 L 226.00000000000063 -809.8243650186309 L 227.00000000000063 -815.5465872408531 L 227.00000000000063 -815.5465872408531 L 228.00000000000063 -821.2688094630753 L 228.00000000000063 -821.2688094630753 L 229.00000000000063 -826.9910316852977 L 229.00000000000063 -826.9910316852977 L 230.00000000000063 -832.7132539075199 L 230.00000000000063 -832.7132539075199 L 231.00000000000063 -838.435476129742 L 231.00000000000063 -838.435476129742 L 232.00000000000063 -844.1576983519642 L 232.00000000000063 -844.1576983519642 L 233.00000000000063 -849.8799205741866 L 233.00000000000063 -849.8799205741866 L 234.00000000000063 -855.6021427964088 L 234.00000000000063 -855.6021427964088 L 235.00000000000063 -861.3243650186312 L 235.00000000000063 -861.3243650186312 L 236.00000000000063 -867.0465872408533 L 236.00000000000063 -867.0465872408533 L 237.00000000000068 -872.7688094630755 L 237.00000000000068 -872.7688094630755 L 238.00000000000068 -878.4910316852977 L 238.00000000000068 -878.4910316852977 L 239.00000000000068 -884.2132539075199 L 239.00000000000068 -884.2132539075199 L 240.00000000000068 -889.9354761297423 L 240.00000000000068 -889.9354761297423 L 241.00000000000068 -895.6576983519644 L 241.00000000000068 -895.6576983519644 L 242.00000000000068 -901.3799205741868 L 242.00000000000068 -901.3799205741868 L 243.00000000000068 -907.102142796409 L 243.00000000000068 -907.102142796409 L 244.00000000000068 -912.8243650186312 L 244.00000000000068 -912.8243650186312 L 245.00000000000068 -918.5465872408533 L 245.00000000000068 -918.5465872408533 L 246.00000000000068 -924.2688094630757 L 246.00000000000068 -924.2688094630757 L 247.00000000000068 -929.9910316852979 L 247.00000000000068 -929.9910316852979 L 248.00000000000068 -935.7132539075201 L 248.00000000000068 -935.7132539075201 L 249.00000000000068 -941.4354761297423 L 249.00000000000068 -941.4354761297423 L 250.00000000000068 -947.1576983519647 L 250.00000000000068 -947.1576983519647 L 251.00000000000074 -952.8799205741868 L 251.00000000000074 -952.8799205741868 L 252.00000000000074 -958.6021427964092 L 252.00000000000074 -958.6021427964092 L 253.00000000000074 -964.3243650186314 L 253.00000000000074 -964.3243650186314 L 254.00000000000074 -970.0465872408536 L 254.00000000000074 -970.0465872408536 L 255.00000000000074 -975.768809463076 L 255.00000000000074 -975.768809463076 L 256.00000000000074 -981.4910316852981 L 256.00000000000074 -981.4910316852981 L 257.00000000000074 -987.2132539075203 L 257.00000000000074 -987.2132539075203 L 258.00000000000074 -992.9354761297425 L 258.00000000000074 -992.9354761297425 L 259.00000000000074 -998.6576983519647 L 259.00000000000074 -998.6576983519647 L 260.00000000000074 -1004.379920574187 L 260.00000000000074 -1004.379920574187 L 261.00000000000074 -1010.1021427964092 L 261.00000000000074 -1010.1021427964092 L 262.00000000000074 -1015.8243650186314 L 262.00000000000074 -1015.8243650186314 L 263.00000000000074 -1021.5465872408536 L 263.00000000000074 -1021.5465872408536 L 264.00000000000074 -1027.2688094630762 L 264.00000000000074 -1027.2688094630762 L 265.00000000000074 -1032.9910316852984 L 265.00000000000074 -1032.9910316852984 L 266.0000000000008 -1038.7132539075205 L 266.0000000000008 -1038.7132539075205 L 267.0000000000008 -1044.4354761297427 L 267.0000000000008 -1044.4354761297427 L 268.0000000000008 -1050.157698351965 L 268.0000000000008 -1050.157698351965 L 269.0000000000008 -1055.8799205741873 L 269.0000000000008 -1055.8799205741873 L 270.0000000000008 -1061.6021427964095 L 270.0000000000008 -1061.6021427964095 L 271.0000000000008 -1067.3243650186316 L 271.0000000000008 -1067.3243650186316 L 272.0000000000008 -1073.046587240854 L 272.0000000000008 -1073.046587240854 L 273.0000000000008 -1078.7688094630762 L 273.0000000000008 -1078.7688094630762 L 274.0000000000008 -1084.4910316852984 L 274.0000000000008 -1084.4910316852984 L 275.0000000000008 -1090.2132539075205 L 275.0000000000008 -1090.2132539075205 L 276.0000000000008 -1095.9354761297427 L 276.0000000000008 -1095.9354761297427 L 277.0000000000008 -1101.657698351965 L 277.0000000000008 -1101.657698351965 L 278.0000000000008 -1107.3799205741873 L 278.0000000000008 -1107.3799205741873 L 279.0000000000008 -1113.1021427964095 L 279.0000000000008 -1113.1021427964095 L 280.00000000000085 -1118.8243650186316 L 280.00000000000085 -1118.8243650186316 L 281.00000000000085 -1124.5465872408543 L 281.00000000000085 -1124.5465872408543 L 282.00000000000085 -1130.2688094630764 L 282.00000000000085 -1130.2688094630764 L 283.00000000000085 -1135.9910316852986 L 283.00000000000085 -1135.9910316852986 L 284.00000000000085 -1141.7132539075208 L 284.00000000000085 -1141.7132539075208 L 285.00000000000085 -1147.4354761297432 L 285.00000000000085 -1147.4354761297432 L 286.00000000000085 -1153.1576983519653 L 286.00000000000085 -1153.1576983519653 L 287.00000000000085 -1158.8799205741875 L 287.00000000000085 -1158.8799205741875 L 288.00000000000085 -1164.6021427964097 L 288.00000000000085 -1164.6021427964097 L 289.00000000000085 -1170.324365018632 L 289.00000000000085 -1170.324365018632 L 290.0000000000009 -1176.0465872408543 L 290.0000000000009 -1176.0465872408543 L 291.0000000000009 -1181.7688094630764 L 291.0000000000009 -1181.7688094630764 L 292.0000000000009 -1187.4910316852986 L 292.0000000000009 -1187.4910316852986 L 293.0000000000009 -1193.213253907521 L 293.0000000000009 -1193.213253907521 L 294.0000000000009 -1198.9354761297432 L 294.0000000000009 -1198.9354761297432 L 295.0000000000009 -1204.6576983519653 L 295.0000000000009 -1204.6576983519653 L 296.0000000000009 -1210.3799205741875 L 296.0000000000009 -1210.3799205741875 L 297.0000000000009 -1216.1021427964097 L 297.0000000000009 -1216.1021427964097 L 298.0000000000009 -1221.8243650186323 L 298.0000000000009 -1221.8243650186323 L 299.0000000000009 -1227.5465872408545 L 299.0000000000009 -1227.5465872408545 L 300.0000000000009 -1233.2688094630766 L 300.0000000000009 -1233.2688094630766 L 301.0000000000009 -1238.9910316852988 L 301.0000000000009 -1238.9910316852988 L 302.0000000000009 -1244.7132539075212 L 302.0000000000009 -1244.7132539075212 L 303.0000000000009 -1250.4354761297434 L 303.0000000000009 -1250.4354761297434 L 304.00000000000097 -1256.1576983519656 L 304.00000000000097 -1256.1576983519656 L 305.00000000000097 -1261.8799205741877 L 305.00000000000097 -1261.8799205741877 L 306.00000000000097 -1267.6021427964101 L 306.00000000000097 -1267.6021427964101 L 307.00000000000097 -1273.3243650186323 L 307.00000000000097 -1273.3243650186323 L 308.00000000000097 -1279.0465872408545 L 308.00000000000097 -1279.0465872408545 L 309.00000000000097 -1284.7688094630766 L 309.00000000000097 -1284.7688094630766 L 310.00000000000097 -1290.491031685299 L 310.00000000000097 -1290.491031685299 L 311.00000000000097 -1296.2132539075212 L 311.00000000000097 -1296.2132539075212 L 312.00000000000097 -1301.9354761297434 L 312.00000000000097 -1301.9354761297434 L 313.00000000000097 -1307.6576983519656 L 313.00000000000097 -1307.6576983519656 L 314.00000000000097 -1313.3799205741877 L 314.00000000000097 -1313.3799205741877 L 315.00000000000097 -1319.1021427964104 L 315.00000000000097 -1319.1021427964104 L 316.00000000000097 -1324.8243650186325 L 316.00000000000097 -1324.8243650186325 L 317.00000000000097 -1330.5465872408547 L 317.00000000000097 -1330.5465872408547 L 318.000000000001 -1336.2688094630769 L 318.000000000001 -1336.2688094630769 L 319.000000000001 -1341.9910316852993 L 319.000000000001 -1341.9910316852993 L 320.000000000001 -1347.7132539075214 L 320.000000000001 -1347.7132539075214 L 321.000000000001 -1353.4354761297436 L 321.000000000001 -1353.4354761297436 L 322.000000000001 -1359.1576983519658 L 322.000000000001 -1359.1576983519658 L 323.000000000001 -1364.8799205741882 L 323.000000000001 -1364.8799205741882 L 324.000000000001 -1370.6021427964104 L 324.000000000001 -1370.6021427964104 L 325.000000000001 -1376.3243650186325 L 325.000000000001 -1376.3243650186325 L 326.000000000001 -1382.0465872408547 L 326.000000000001 -1382.0465872408547 L 327.000000000001 -1387.768809463077 L 327.000000000001 -1387.768809463077 L 328.000000000001 -1393.4910316852993 L 328.000000000001 -1393.4910316852993 L 329.000000000001 -1399.2132539075214 L 329.000000000001 -1399.2132539075214 L 330.000000000001 -1404.9354761297436 L 330.000000000001 -1404.9354761297436 L 331.000000000001 -1410.6576983519658 L 331.000000000001 -1410.6576983519658 L 332.0000000000011 -1416.3799205741884 L 332.0000000000011 -1416.3799205741884 L 333.0000000000011 -1422.1021427964106 L 333.0000000000011 -1422.1021427964106 L 334.0000000000011 -1427.8243650186328 L 334.0000000000011 -1427.8243650186328 L 335.0000000000011 -1433.546587240855 L 335.0000000000011 -1433.546587240855 L 336.0000000000011 -1439.2688094630773 L 336.0000000000011 -1439.2688094630773 L 337.0000000000011 -1444.9910316852995 L 337.0000000000011 -1444.9910316852995 L 338.0000000000011 -1450.7132539075217 L 338.0000000000011 -1450.7132539075217 L 339.0000000000011 -1456.4354761297438 L 339.0000000000011 -1456.4354761297438 L 340.0000000000011 -1462.1576983519662 L 340.0000000000011 -1462.1576983519662 L 341.0000000000011 -1467.8799205741884 L 341.0000000000011 -1467.8799205741884 L 342.0000000000011 -1473.6021427964106 L 342.0000000000011 -1473.6021427964106 L 343.0000000000011 -1479.3243650186328 L 343.0000000000011 -1479.3243650186328 L 344.0000000000011 -1485.0465872408552 L 344.0000000000011 -1485.0465872408552 L 345.0000000000011 -1490.7688094630773 L 345.0000000000011 -1490.7688094630773 L 346.00000000000114 -1496.4910316852995 L 346.00000000000114 -1496.4910316852995 L 347.00000000000114 -1502.2132539075217 L 347.00000000000114 -1502.2132539075217 L 348.00000000000114 -1507.9354761297443 L 348.00000000000114 -1507.9354761297443 L 349.0000000000011 -1513.657698351966 L 349.0000000000011 -1513.657698351966 L 350.0000000000011 -1519.3799205741882 L 350.0000000000011 -1519.3799205741882 L 351.0000000000011 -1525.1021427964108 L 351.0000000000011 -1525.1021427964108 L 352.0000000000011 -1530.824365018633 L 352.0000000000011 -1530.824365018633 L 353.0000000000011 -1536.5465872408552 L 353.0000000000011 -1536.5465872408552 L 354.0000000000011 -1542.2688094630773 L 354.0000000000011 -1542.2688094630773 L 355.00000000000114 -1547.9910316852995 L 355.00000000000114 -1547.9910316852995 L 356.00000000000114 -1553.713253907522 L 356.00000000000114 -1553.713253907522 L 357.00000000000114 -1559.435476129744 L 357.00000000000114 -1559.435476129744 L 358.00000000000114 -1565.1576983519662 L 358.00000000000114 -1565.1576983519662 L 359.00000000000114 -1570.8799205741884" stroke-opacity="0.6980392156862745" stroke-linecap="round" stroke-linejoin="round" stroke-miterlimit="10" stroke-width="2.5"/><path fill="rgb(77,77,255)" stroke="none" paint-order="stroke fill markers" d=" M 75.50006865282117 267.3713403035156 C 75.50006865282117 270.13276405266953 73.26149240197513 272.3713403035156 70.50006865282117 272.3713403035156 C 67.73864490366721 272.3713403035156 65.50006865282117 270.13276405266953 65.50006865282117 267.3713403035156 C 65.50006865282117 264.60991655436163 67.73864490366721 262.3713403035156 70.50006865282117 262.3713403035156 C 73.26149240197513 262.3713403035156 75.50006865282117 264.60991655436163 75.50006865282117 267.3713403035156 Z" fill-opacity="1"/><path fill="none" stroke="rgb(0,0,0)" paint-order="fill stroke markers" d=" M 75.50006865282117 267.3713403035156 C 75.50006865282117 270.13276405266953 73.26149240197513 272.3713403035156 70.50006865282117 272.3713403035156 C 67.73864490366721 272.3713403035156 65.50006865282117 270.13276405266953 65.50006865282117 267.3713403035156 C 65.50006865282117 264.60991655436163 67.73864490366721 262.3713403035156 70.50006865282117 262.3713403035156 C 73.26149240197513 262.3713403035156 75.50006865282117 264.60991655436163 75.50006865282117 267.3713403035156 Z" stroke-opacity="1" stroke-linecap="round" stroke-linejoin="round" stroke-miterlimit="10"/><text fill="rgb(77,77,255)" stroke="none" font-family="geogebra-sans-serif, sans-serif" font-size="16px" font-style="normal" font-weight="normal" text-decoration="normal" x="75" y="257" text-anchor="start" dominant-baseline="alphabetic" fill-opacity="1">A</text><text fill="none" stroke="rgb(255,255,255)" font-family="geogebra-sans-serif, sans-serif" font-size="16px" font-style="normal" font-weight="normal" text-decoration="normal" x="75" y="257" text-anchor="start" dominant-baseline="alphabetic" stroke-opacity="1" stroke-linejoin="bevel" stroke-miterlimit="10" stroke-width="3">A</text><text fill="rgb(77,77,255)" stroke="none" font-family="geogebra-sans-serif, sans-serif" font-size="16px" font-style="normal" font-weight="normal" text-decoration="normal" x="75" y="257" text-anchor="start" dominant-baseline="alphabetic" fill-opacity="1">A</text><path fill="rgb(77,77,255)" stroke="none" paint-order="stroke fill markers" d=" M 115.18277179445853 108.6405277369663 C 115.18277179445853 111.40195148612027 112.9441955436125 113.6405277369663 110.18277179445853 113.6405277369663 C 107.42134804530457 113.6405277369663 105.18277179445853 111.40195148612027 105.18277179445853 108.6405277369663 C 105.18277179445853 105.87910398781234 107.42134804530457 103.6405277369663 110.18277179445853 103.6405277369663 C 112.9441955436125 103.6405277369663 115.18277179445853 105.87910398781234 115.18277179445853 108.6405277369663 Z" fill-opacity="1"/><path fill="none" stroke="rgb(0,0,0)" paint-order="fill stroke markers" d=" M 115.18277179445853 108.6405277369663 C 115.18277179445853 111.40195148612027 112.9441955436125 113.6405277369663 110.18277179445853 113.6405277369663 C 107.42134804530457 113.6405277369663 105.18277179445853 111.40195148612027 105.18277179445853 108.6405277369663 C 105.18277179445853 105.87910398781234 107.42134804530457 103.6405277369663 110.18277179445853 103.6405277369663 C 112.9441955436125 103.6405277369663 115.18277179445853 105.87910398781234 115.18277179445853 108.6405277369663 Z" stroke-opacity="1" stroke-linecap="round" stroke-linejoin="round" stroke-miterlimit="10"/><text fill="rgb(77,77,255)" stroke="none" font-family="geogebra-sans-serif, sans-serif" font-size="16px" font-style="normal" font-weight="normal" text-decoration="normal" x="114" y="99" text-anchor="start" dominant-baseline="alphabetic" fill-opacity="1">B</text><text fill="none" stroke="rgb(255,255,255)" font-family="geogebra-sans-serif, sans-serif" font-size="16px" font-style="normal" font-weight="normal" text-decoration="normal" x="114" y="99" text-anchor="start" dominant-baseline="alphabetic" stroke-opacity="1" stroke-linejoin="bevel" stroke-miterlimit="10" stroke-width="3">B</text><text fill="rgb(77,77,255)" stroke="none" font-family="geogebra-sans-serif, sans-serif" font-size="16px" font-style="normal" font-weight="normal" text-decoration="normal" x="114" y="99" text-anchor="start" dominant-baseline="alphabetic" fill-opacity="1">B</text><path fill="rgb(77,77,255)" stroke="none" paint-order="stroke fill markers" d=" M 194.54817807773327 148.32323087860362 C 194.54817807773327 151.0846546277576 192.30960182688725 153.32323087860362 189.54817807773327 153.32323087860362 C 186.7867543285793 153.32323087860362 184.54817807773327 151.0846546277576 184.54817807773327 148.32323087860362 C 184.54817807773327 145.56180712944965 186.7867543285793 143.32323087860362 189.54817807773327 143.32323087860362 C 192.30960182688725 143.32323087860362 194.54817807773327 145.56180712944965 194.54817807773327 148.32323087860362 Z" fill-opacity="1"/><path fill="none" stroke="rgb(0,0,0)" paint-order="fill stroke markers" d=" M 194.54817807773327 148.32323087860362 C 194.54817807773327 151.0846546277576 192.30960182688725 153.32323087860362 189.54817807773327 153.32323087860362 C 186.7867543285793 153.32323087860362 184.54817807773327 151.0846546277576 184.54817807773327 148.32323087860362 C 184.54817807773327 145.56180712944965 186.7867543285793 143.32323087860362 189.54817807773327 143.32323087860362 C 192.30960182688725 143.32323087860362 194.54817807773327 145.56180712944965 194.54817807773327 148.32323087860362 Z" stroke-opacity="1" stroke-linecap="round" stroke-linejoin="round" stroke-miterlimit="10"/><text fill="rgb(77,77,255)" stroke="none" font-family="geogebra-sans-serif, sans-serif" font-size="16px" font-style="normal" font-weight="normal" text-decoration="normal" x="194" y="138" text-anchor="start" dominant-baseline="alphabetic" fill-opacity="1">C</text><text fill="none" stroke="rgb(255,255,255)" font-family="geogebra-sans-serif, sans-serif" font-size="16px" font-style="normal" font-weight="normal" text-decoration="normal" x="194" y="138" text-anchor="start" dominant-baseline="alphabetic" stroke-opacity="1" stroke-linejoin="bevel" stroke-miterlimit="10" stroke-width="3">C</text><text fill="rgb(77,77,255)" stroke="none" font-family="geogebra-sans-serif, sans-serif" font-size="16px" font-style="normal" font-weight="normal" text-decoration="normal" x="194" y="138" text-anchor="start" dominant-baseline="alphabetic" fill-opacity="1">C</text><path fill="rgb(77,77,255)" stroke="none" paint-order="stroke fill markers" d=" M 234.23088121937064 227.68863716187826 C 234.23088121937064 230.45006091103224 231.99230496852462 232.68863716187826 229.23088121937064 232.68863716187826 C 226.46945747021667 232.68863716187826 224.23088121937064 230.45006091103224 224.23088121937064 227.68863716187826 C 224.23088121937064 224.92721341272429 226.46945747021667 222.68863716187826 229.23088121937064 222.68863716187826 C 231.99230496852462 222.68863716187826 234.23088121937064 224.92721341272429 234.23088121937064 227.68863716187826 Z" fill-opacity="1"/><path fill="none" stroke="rgb(0,0,0)" paint-order="fill stroke markers" d=" M 234.23088121937064 227.68863716187826 C 234.23088121937064 230.45006091103224 231.99230496852462 232.68863716187826 229.23088121937064 232.68863716187826 C 226.46945747021667 232.68863716187826 224.23088121937064 230.45006091103224 224.23088121937064 227.68863716187826 C 224.23088121937064 224.92721341272429 226.46945747021667 222.68863716187826 229.23088121937064 222.68863716187826 C 231.99230496852462 222.68863716187826 234.23088121937064 224.92721341272429 234.23088121937064 227.68863716187826 Z" stroke-opacity="1" stroke-linecap="round" stroke-linejoin="round" stroke-miterlimit="10"/><text fill="rgb(77,77,255)" stroke="none" font-family="geogebra-sans-serif, sans-serif" font-size="16px" font-style="normal" font-weight="normal" text-decoration="normal" x="233" y="218" text-anchor="start" dominant-baseline="alphabetic" fill-opacity="1">D</text><text fill="none" stroke="rgb(255,255,255)" font-family="geogebra-sans-serif, sans-serif" font-size="16px" font-style="normal" font-weight="normal" text-decoration="normal" x="233" y="218" text-anchor="start" dominant-baseline="alphabetic" stroke-opacity="1" stroke-linejoin="bevel" stroke-miterlimit="10" stroke-width="3">D</text><text fill="rgb(77,77,255)" stroke="none" font-family="geogebra-sans-serif, sans-serif" font-size="16px" font-style="normal" font-weight="normal" text-decoration="normal" x="233" y="218" text-anchor="start" dominant-baseline="alphabetic" fill-opacity="1">D</text><path fill="rgb(77,77,255)" stroke="none" paint-order="stroke fill markers" d=" M 154.8654749360959 188.00593402024094 C 154.8654749360959 190.76735776939492 152.62689868524987 193.00593402024094 149.8654749360959 193.00593402024094 C 147.10405118694192 193.00593402024094 144.8654749360959 190.76735776939492 144.8654749360959 188.00593402024094 C 144.8654749360959 185.24451027108697 147.10405118694192 183.00593402024094 149.8654749360959 183.00593402024094 C 152.62689868524987 183.00593402024094 154.8654749360959 185.24451027108697 154.8654749360959 188.00593402024094 Z" fill-opacity="1"/><path fill="none" stroke="rgb(0,0,0)" paint-order="fill stroke markers" d=" M 154.8654749360959 188.00593402024094 C 154.8654749360959 190.76735776939492 152.62689868524987 193.00593402024094 149.8654749360959 193.00593402024094 C 147.10405118694192 193.00593402024094 144.8654749360959 190.76735776939492 144.8654749360959 188.00593402024094 C 144.8654749360959 185.24451027108697 147.10405118694192 183.00593402024094 149.8654749360959 183.00593402024094 C 152.62689868524987 183.00593402024094 154.8654749360959 185.24451027108697 154.8654749360959 188.00593402024094 Z" stroke-opacity="1" stroke-linecap="round" stroke-linejoin="round" stroke-miterlimit="10"/><text fill="rgb(77,77,255)" stroke="none" font-family="geogebra-sans-serif, sans-serif" font-size="16px" font-style="normal" font-weight="normal" text-decoration="normal" x="154" y="178" text-anchor="start" dominant-baseline="alphabetic" fill-opacity="1">E</text><text fill="none" stroke="rgb(255,255,255)" font-family="geogebra-sans-serif, sans-serif" font-size="16px" font-style="normal" font-weight="normal" text-decoration="normal" x="154" y="178" text-anchor="start" dominant-baseline="alphabetic" stroke-opacity="1" stroke-linejoin="bevel" stroke-miterlimit="10" stroke-width="3">E</text><text fill="rgb(77,77,255)" stroke="none" font-family="geogebra-sans-serif, sans-serif" font-size="16px" font-style="normal" font-weight="normal" text-decoration="normal" x="154" y="178" text-anchor="start" dominant-baseline="alphabetic" fill-opacity="1">E</text><g transform="scale(19,19)"><g transform="translate(13.105263157894736,9.267876421052632)"><path fill="rgb(0,0,0)" stroke="none" paint-order="stroke fill markers" d=" M 0.577 -0.377 L 0.483 0.001 Q 0.461 0.09 0.3785 0.146 Q 0.296 0.202 0.20500000000000002 0.202 Q 0.145 0.202 0.108 0.178 Q 0.07100000000000001 0.154 0.07100000000000001 0.115 Q 0.07100000000000001 0.083 0.0925 0.061 Q 0.114 0.039 0.14300000000000002 0.039 Q 0.162 0.039 0.177 0.05 Q 0.192 0.061 0.192 0.085 Q 0.192 0.132 0.14400000000000002 0.152 Q 0.167 0.166 0.20500000000000002 0.166 Q 0.26 0.166 0.3085 0.116 Q 0.357 0.066 0.377 -0.022 Q 0.334 0.008 0.281 0.008 Q 0.254 0.008 0.2305 0.0035 Q 0.20700000000000002 -0.001 0.1805 -0.0135 Q 0.154 -0.026000000000000002 0.138 -0.054 Q 0.122 -0.082 0.122 -0.122 Q 0.122 -0.157 0.1355 -0.2005 Q 0.149 -0.244 0.182 -0.33 Q 0.199 -0.375 0.199 -0.395 Q 0.199 -0.405 0.196 -0.41000000000000003 Q 0.193 -0.41500000000000004 0.19 -0.41550000000000004 Q 0.187 -0.41600000000000004 0.182 -0.41600000000000004 Q 0.17400000000000002 -0.41600000000000004 0.1635 -0.41200000000000003 Q 0.153 -0.40800000000000003 0.1375 -0.3975 Q 0.122 -0.387 0.106 -0.3605 Q 0.09 -0.334 0.079 -0.295 Q 0.075 -0.28200000000000003 0.056 -0.28200000000000003 Q 0.032 -0.28200000000000003 0.032 -0.296 Q 0.032 -0.306 0.042 -0.3295 Q 0.052000000000000005 -0.353 0.07 -0.3815 Q 0.088 -0.41000000000000003 0.11950000000000001 -0.431 Q 0.151 -0.452 0.188 -0.452 Q 0.233 -0.452 0.267 -0.4275 Q 0.301 -0.403 0.301 -0.362 Q 0.301 -0.34600000000000003 0.28800000000000003 -0.312 Q 0.229 -0.16 0.229 -0.101 Q 0.229 -0.028 0.289 -0.028 Q 0.319 -0.028 0.357 -0.052000000000000005 Q 0.36 -0.054 0.3675 -0.06 Q 0.375 -0.066 0.3845 -0.078 Q 0.394 -0.09 0.396 -0.1 Q 0.403 -0.127 0.438 -0.266 L 0.464 -0.37 Q 0.468 -0.385 0.47100000000000003 -0.394 Q 0.47400000000000003 -0.403 0.482 -0.4165 Q 0.49 -0.43 0.5035000000000001 -0.437 Q 0.517 -0.444 0.535 -0.444 Q 0.557 -0.444 0.5695 -0.431 Q 0.582 -0.418 0.582 -0.4 Q 0.582 -0.395 0.577 -0.377 Z"/></g><g transform="translate(14.010040935672516,9.267876421052632)"><path fill="rgb(0,0,0)" stroke="none" paint-order="stroke fill markers" d=" M 0.788 -0.332 L 0.105 -0.332 Q 0.064 -0.332 0.064 -0.362 Q 0.064 -0.393 0.11 -0.393 L 0.783 -0.393 Q 0.8290000000000001 -0.393 0.8290000000000001 -0.362 Q 0.8290000000000001 -0.332 0.788 -0.332 M 0.783 -0.108 L 0.11 -0.108 Q 0.064 -0.108 0.064 -0.139 Q 0.064 -0.169 0.105 -0.169 L 0.788 -0.169 Q 0.8290000000000001 -0.169 0.8290000000000001 -0.139 Q 0.8290000000000001 -0.108 0.783 -0.108 Z"/></g><g transform="translate(15.244740650917663,8.591368421052632)"><path fill="rgb(0,0,0)" stroke="none" paint-order="stroke fill markers" d=" M 0.517 -0.222 L 0.486 0 L 0.057 0 L 0.057 -0.018000000000000002 Q 0.057 -0.034 0.059000000000000004 -0.0385 Q 0.061 -0.043000000000000003 0.07 -0.052000000000000005 L 0.271 -0.257 Q 0.379 -0.367 0.379 -0.465 Q 0.379 -0.525 0.34400000000000003 -0.5665 Q 0.309 -0.608 0.247 -0.608 Q 0.186 -0.608 0.14400000000000002 -0.5730000000000001 Q 0.155 -0.5700000000000001 0.166 -0.5645 Q 0.177 -0.559 0.189 -0.542 Q 0.201 -0.525 0.201 -0.501 Q 0.201 -0.466 0.1785 -0.4475 Q 0.156 -0.429 0.129 -0.429 Q 0.10400000000000001 -0.429 0.0805 -0.4465 Q 0.057 -0.464 0.057 -0.503 Q 0.057 -0.5700000000000001 0.11850000000000001 -0.6125 Q 0.18 -0.655 0.272 -0.655 Q 0.379 -0.655 0.448 -0.603 Q 0.517 -0.551 0.517 -0.466 Q 0.517 -0.431 0.507 -0.404 Q 0.497 -0.377 0.46900000000000003 -0.34750000000000003 Q 0.441 -0.318 0.417 -0.299 Q 0.393 -0.28 0.339 -0.24 Q 0.292 -0.20600000000000002 0.195 -0.125 L 0.342 -0.125 Q 0.433 -0.125 0.444 -0.131 Q 0.457 -0.138 0.47000000000000003 -0.222 L 0.517 -0.222 Z"/></g><rect fill="rgb(0,0,0)" stroke="none" x="15.244740650917663" y="8.997876921052631" width="0.575" height="0.039999"/><g transform="translate(15.244740650917663,9.953827421052631)"><path fill="rgb(0,0,0)" stroke="none" paint-order="stroke fill markers" d=" M 0.352 -0.352 Q 0.403 -0.341 0.4395 -0.3205 Q 0.47600000000000003 -0.3 0.4935 -0.2745 Q 0.511 -0.249 0.5185 -0.2265 Q 0.526 -0.20400000000000001 0.526 -0.18 Q 0.526 -0.10300000000000001 0.4625 -0.046 Q 0.399 0.011 0.274 0.011 Q 0.176 0.011 0.112 -0.0305 Q 0.048 -0.07200000000000001 0.048 -0.139 Q 0.048 -0.176 0.07 -0.1965 Q 0.092 -0.217 0.125 -0.217 Q 0.158 -0.217 0.1795 -0.196 Q 0.201 -0.17500000000000002 0.201 -0.14100000000000001 Q 0.201 -0.082 0.14300000000000002 -0.066 Q 0.197 -0.032 0.269 -0.032 Q 0.299 -0.032 0.32 -0.044 Q 0.341 -0.056 0.35100000000000003 -0.07050000000000001 Q 0.361 -0.085 0.3665 -0.109 Q 0.372 -0.133 0.3725 -0.1465 Q 0.373 -0.16 0.373 -0.181 Q 0.373 -0.203 0.3725 -0.2165 Q 0.372 -0.23 0.366 -0.2545 Q 0.36 -0.279 0.34950000000000003 -0.293 Q 0.339 -0.307 0.317 -0.3185 Q 0.295 -0.33 0.264 -0.33 L 0.22 -0.33 Q 0.209 -0.33 0.20450000000000002 -0.3305 Q 0.2 -0.331 0.196 -0.335 Q 0.192 -0.339 0.192 -0.34800000000000003 Q 0.192 -0.364 0.20400000000000001 -0.365 Q 0.215 -0.367 0.252 -0.369 Q 0.277 -0.37 0.296 -0.3805 Q 0.315 -0.391 0.3255 -0.40800000000000003 Q 0.336 -0.425 0.343 -0.441 Q 0.35000000000000003 -0.457 0.353 -0.47600000000000003 Q 0.356 -0.495 0.3565 -0.5035000000000001 Q 0.357 -0.512 0.357 -0.519 Q 0.357 -0.616 0.271 -0.616 Q 0.20600000000000002 -0.616 0.161 -0.58 Q 0.219 -0.5660000000000001 0.219 -0.51 Q 0.219 -0.481 0.2 -0.461 Q 0.181 -0.441 0.149 -0.441 Q 0.12 -0.441 0.1 -0.4605 Q 0.08 -0.48 0.08 -0.511 Q 0.08 -0.5720000000000001 0.1345 -0.6135 Q 0.189 -0.655 0.277 -0.655 Q 0.379 -0.655 0.4365 -0.6155 Q 0.494 -0.5760000000000001 0.494 -0.516 Q 0.494 -0.456 0.452 -0.41300000000000003 Q 0.41000000000000003 -0.37 0.352 -0.352 Z"/></g><g transform="translate(16.0493292550517,9.267876421052632)"><path fill="rgb(0,0,0)" stroke="none" paint-order="stroke fill markers" d=" M 0.536 -0.401 Q 0.516 -0.41600000000000004 0.488 -0.41600000000000004 Q 0.461 -0.41600000000000004 0.4375 -0.392 Q 0.41400000000000003 -0.368 0.403 -0.325 Q 0.4 -0.316 0.385 -0.257 Q 0.37 -0.198 0.368 -0.189 Q 0.34600000000000003 -0.099 0.34600000000000003 -0.078 Q 0.34600000000000003 -0.028 0.402 -0.028 Q 0.44 -0.028 0.482 -0.0575 Q 0.524 -0.08700000000000001 0.544 -0.149 Q 0.548 -0.162 0.5670000000000001 -0.162 Q 0.591 -0.162 0.591 -0.148 Q 0.591 -0.134 0.578 -0.1095 Q 0.5650000000000001 -0.085 0.542 -0.058 Q 0.519 -0.031 0.48 -0.0115 Q 0.441 0.008 0.397 0.008 Q 0.295 0.008 0.259 -0.053 Q 0.215 0.008 0.152 0.008 Q 0.105 0.008 0.07150000000000001 -0.0165 Q 0.038 -0.041 0.038 -0.08 Q 0.038 -0.115 0.06 -0.1365 Q 0.082 -0.158 0.11 -0.158 Q 0.133 -0.158 0.1465 -0.14400000000000002 Q 0.16 -0.13 0.16 -0.112 Q 0.16 -0.091 0.1455 -0.07050000000000001 Q 0.131 -0.05 0.106 -0.043000000000000003 Q 0.126 -0.028 0.154 -0.028 Q 0.181 -0.028 0.20450000000000002 -0.051500000000000004 Q 0.228 -0.075 0.23900000000000002 -0.11900000000000001 L 0.273 -0.256 Q 0.296 -0.34800000000000003 0.296 -0.366 Q 0.296 -0.41600000000000004 0.24 -0.41600000000000004 Q 0.202 -0.41600000000000004 0.16 -0.3865 Q 0.11800000000000001 -0.357 0.098 -0.295 Q 0.094 -0.28200000000000003 0.075 -0.28200000000000003 Q 0.051000000000000004 -0.28200000000000003 0.051000000000000004 -0.296 Q 0.051000000000000004 -0.31 0.064 -0.3345 Q 0.077 -0.359 0.1 -0.386 Q 0.123 -0.41300000000000003 0.162 -0.4325 Q 0.201 -0.452 0.245 -0.452 Q 0.34700000000000003 -0.452 0.383 -0.391 Q 0.427 -0.452 0.49 -0.452 Q 0.537 -0.452 0.5705 -0.4275 Q 0.604 -0.403 0.604 -0.364 Q 0.604 -0.329 0.582 -0.3075 Q 0.56 -0.28600000000000003 0.532 -0.28600000000000003 Q 0.509 -0.28600000000000003 0.4955 -0.3 Q 0.482 -0.314 0.482 -0.332 Q 0.482 -0.353 0.4965 -0.3735 Q 0.511 -0.394 0.536 -0.401 Z"/></g></g><g transform="scale(19,19)"><g transform="translate(4.368421052631579,2.215244842105263)"><path fill="rgb(0,0,0)" stroke="none" paint-order="stroke fill markers" d=" M 0.577 -0.377 L 0.483 0.001 Q 0.461 0.09 0.3785 0.146 Q 0.296 0.202 0.20500000000000002 0.202 Q 0.145 0.202 0.108 0.178 Q 0.07100000000000001 0.154 0.07100000000000001 0.115 Q 0.07100000000000001 0.083 0.0925 0.061 Q 0.114 0.039 0.14300000000000002 0.039 Q 0.162 0.039 0.177 0.05 Q 0.192 0.061 0.192 0.085 Q 0.192 0.132 0.14400000000000002 0.152 Q 0.167 0.166 0.20500000000000002 0.166 Q 0.26 0.166 0.3085 0.116 Q 0.357 0.066 0.377 -0.022 Q 0.334 0.008 0.281 0.008 Q 0.254 0.008 0.2305 0.0035 Q 0.20700000000000002 -0.001 0.1805 -0.0135 Q 0.154 -0.026000000000000002 0.138 -0.054 Q 0.122 -0.082 0.122 -0.122 Q 0.122 -0.157 0.1355 -0.2005 Q 0.149 -0.244 0.182 -0.33 Q 0.199 -0.375 0.199 -0.395 Q 0.199 -0.405 0.196 -0.41000000000000003 Q 0.193 -0.41500000000000004 0.19 -0.41550000000000004 Q 0.187 -0.41600000000000004 0.182 -0.41600000000000004 Q 0.17400000000000002 -0.41600000000000004 0.1635 -0.41200000000000003 Q 0.153 -0.40800000000000003 0.1375 -0.3975 Q 0.122 -0.387 0.106 -0.3605 Q 0.09 -0.334 0.079 -0.295 Q 0.075 -0.28200000000000003 0.056 -0.28200000000000003 Q 0.032 -0.28200000000000003 0.032 -0.296 Q 0.032 -0.306 0.042 -0.3295 Q 0.052000000000000005 -0.353 0.07 -0.3815 Q 0.088 -0.41000000000000003 0.11950000000000001 -0.431 Q 0.151 -0.452 0.188 -0.452 Q 0.233 -0.452 0.267 -0.4275 Q 0.301 -0.403 0.301 -0.362 Q 0.301 -0.34600000000000003 0.28800000000000003 -0.312 Q 0.229 -0.16 0.229 -0.101 Q 0.229 -0.028 0.289 -0.028 Q 0.319 -0.028 0.357 -0.052000000000000005 Q 0.36 -0.054 0.3675 -0.06 Q 0.375 -0.066 0.3845 -0.078 Q 0.394 -0.09 0.396 -0.1 Q 0.403 -0.127 0.438 -0.266 L 0.464 -0.37 Q 0.468 -0.385 0.47100000000000003 -0.394 Q 0.47400000000000003 -0.403 0.482 -0.4165 Q 0.49 -0.43 0.5035000000000001 -0.437 Q 0.517 -0.444 0.535 -0.444 Q 0.557 -0.444 0.5695 -0.431 Q 0.582 -0.418 0.582 -0.4 Q 0.582 -0.395 0.577 -0.377 Z"/></g><g transform="translate(5.273198830409356,2.215244842105263)"><path fill="rgb(0,0,0)" stroke="none" paint-order="stroke fill markers" d=" M 0.788 -0.332 L 0.105 -0.332 Q 0.064 -0.332 0.064 -0.362 Q 0.064 -0.393 0.11 -0.393 L 0.783 -0.393 Q 0.8290000000000001 -0.393 0.8290000000000001 -0.362 Q 0.8290000000000001 -0.332 0.788 -0.332 M 0.783 -0.108 L 0.11 -0.108 Q 0.064 -0.108 0.064 -0.139 Q 0.064 -0.169 0.105 -0.169 L 0.788 -0.169 Q 0.8290000000000001 -0.169 0.8290000000000001 -0.139 Q 0.8290000000000001 -0.108 0.783 -0.108 Z"/></g><g transform="translate(6.507898545654502,1.538736842105263)"><path fill="rgb(0,0,0)" stroke="none" paint-order="stroke fill markers" d=" M 0.354 -0.623 L 0.354 -0.047 L 0.494 -0.047 L 0.494 0 Q 0.45 -0.003 0.295 -0.003 Q 0.14 -0.003 0.096 0 L 0.096 -0.047 L 0.23500000000000001 -0.047 L 0.23500000000000001 -0.5640000000000001 Q 0.17300000000000001 -0.544 0.105 -0.544 L 0.085 -0.544 L 0.085 -0.591 L 0.105 -0.591 Q 0.229 -0.591 0.306 -0.648 Q 0.315 -0.655 0.328 -0.655 Q 0.34600000000000003 -0.655 0.35000000000000003 -0.6485 Q 0.354 -0.642 0.354 -0.623 Z"/></g><g transform="translate(7.082898545654502,1.538736842105263)"><path fill="rgb(0,0,0)" stroke="none" paint-order="stroke fill markers" d=" M 0.5285 -0.369 Q 0.5285 -0.369 0.52875 -0.359 Q 0.529 -0.34900000000000003 0.529 -0.319 Q 0.529 -0.289 0.5285 -0.2685 Q 0.528 -0.248 0.523 -0.2105 Q 0.518 -0.17300000000000001 0.5095000000000001 -0.1465 Q 0.501 -0.12 0.483 -0.088 Q 0.465 -0.056 0.44 -0.036000000000000004 Q 0.41500000000000004 -0.016 0.3755 -0.0025 Q 0.336 0.011 0.28700000000000003 0.011 Q 0.23700000000000002 0.011 0.1975 -0.003 Q 0.158 -0.017 0.1335 -0.0365 Q 0.109 -0.056 0.091 -0.0885 Q 0.073 -0.121 0.0645 -0.147 Q 0.056 -0.17300000000000001 0.051000000000000004 -0.211 Q 0.046 -0.249 0.0455 -0.269 Q 0.045 -0.289 0.045 -0.319 Q 0.045 -0.34900000000000003 0.0455 -0.369 Q 0.046 -0.389 0.051000000000000004 -0.4275 Q 0.056 -0.466 0.0645 -0.493 Q 0.073 -0.52 0.091 -0.553 Q 0.109 -0.586 0.1335 -0.6065 Q 0.158 -0.627 0.1975 -0.641 Q 0.23700000000000002 -0.655 0.28700000000000003 -0.655 Q 0.337 -0.655 0.3765 -0.6405 Q 0.41600000000000004 -0.626 0.4405 -0.606 Q 0.465 -0.586 0.483 -0.5525 Q 0.501 -0.519 0.5095000000000001 -0.4925 Q 0.518 -0.466 0.523 -0.4275 Q 0.528 -0.389 0.5285 -0.369 M 0.28700000000000003 -0.025 Q 0.307 -0.025 0.326 -0.0315 Q 0.34500000000000003 -0.038 0.3665 -0.0635 Q 0.388 -0.089 0.394 -0.132 Q 0.401 -0.184 0.401 -0.331 Q 0.401 -0.519 0.384 -0.556 Q 0.371 -0.587 0.34400000000000003 -0.603 Q 0.317 -0.619 0.28700000000000003 -0.619 Q 0.269 -0.619 0.2505 -0.614 Q 0.232 -0.609 0.209 -0.5845 Q 0.186 -0.56 0.181 -0.52 Q 0.17300000000000001 -0.468 0.17300000000000001 -0.331 Q 0.17300000000000001 -0.17200000000000001 0.182 -0.12 Q 0.191 -0.07100000000000001 0.2225 -0.048 Q 0.254 -0.025 0.28700000000000003 -0.025 Z"/></g><g transform="translate(7.657898545654502,1.538736842105263)"><path fill="rgb(0,0,0)" stroke="none" paint-order="stroke fill markers" d=" M 0.352 -0.352 Q 0.403 -0.341 0.4395 -0.3205 Q 0.47600000000000003 -0.3 0.4935 -0.2745 Q 0.511 -0.249 0.5185 -0.2265 Q 0.526 -0.20400000000000001 0.526 -0.18 Q 0.526 -0.10300000000000001 0.4625 -0.046 Q 0.399 0.011 0.274 0.011 Q 0.176 0.011 0.112 -0.0305 Q 0.048 -0.07200000000000001 0.048 -0.139 Q 0.048 -0.176 0.07 -0.1965 Q 0.092 -0.217 0.125 -0.217 Q 0.158 -0.217 0.1795 -0.196 Q 0.201 -0.17500000000000002 0.201 -0.14100000000000001 Q 0.201 -0.082 0.14300000000000002 -0.066 Q 0.197 -0.032 0.269 -0.032 Q 0.299 -0.032 0.32 -0.044 Q 0.341 -0.056 0.35100000000000003 -0.07050000000000001 Q 0.361 -0.085 0.3665 -0.109 Q 0.372 -0.133 0.3725 -0.1465 Q 0.373 -0.16 0.373 -0.181 Q 0.373 -0.203 0.3725 -0.2165 Q 0.372 -0.23 0.366 -0.2545 Q 0.36 -0.279 0.34950000000000003 -0.293 Q 0.339 -0.307 0.317 -0.3185 Q 0.295 -0.33 0.264 -0.33 L 0.22 -0.33 Q 0.209 -0.33 0.20450000000000002 -0.3305 Q 0.2 -0.331 0.196 -0.335 Q 0.192 -0.339 0.192 -0.34800000000000003 Q 0.192 -0.364 0.20400000000000001 -0.365 Q 0.215 -0.367 0.252 -0.369 Q 0.277 -0.37 0.296 -0.3805 Q 0.315 -0.391 0.3255 -0.40800000000000003 Q 0.336 -0.425 0.343 -0.441 Q 0.35000000000000003 -0.457 0.353 -0.47600000000000003 Q 0.356 -0.495 0.3565 -0.5035000000000001 Q 0.357 -0.512 0.357 -0.519 Q 0.357 -0.616 0.271 -0.616 Q 0.20600000000000002 -0.616 0.161 -0.58 Q 0.219 -0.5660000000000001 0.219 -0.51 Q 0.219 -0.481 0.2 -0.461 Q 0.181 -0.441 0.149 -0.441 Q 0.12 -0.441 0.1 -0.4605 Q 0.08 -0.48 0.08 -0.511 Q 0.08 -0.5720000000000001 0.1345 -0.6135 Q 0.189 -0.655 0.277 -0.655 Q 0.379 -0.655 0.4365 -0.6155 Q 0.494 -0.5760000000000001 0.494 -0.516 Q 0.494 -0.456 0.452 -0.41300000000000003 Q 0.41000000000000003 -0.37 0.352 -0.352 Z"/></g><rect fill="rgb(0,0,0)" stroke="none" x="6.507898545654502" y="1.945245342105263" width="1.7249999999999999" height="0.039999"/><g transform="translate(6.795398545654502,2.901195842105263)"><path fill="rgb(0,0,0)" stroke="none" paint-order="stroke fill markers" d=" M 0.354 -0.623 L 0.354 -0.047 L 0.494 -0.047 L 0.494 0 Q 0.45 -0.003 0.295 -0.003 Q 0.14 -0.003 0.096 0 L 0.096 -0.047 L 0.23500000000000001 -0.047 L 0.23500000000000001 -0.5640000000000001 Q 0.17300000000000001 -0.544 0.105 -0.544 L 0.085 -0.544 L 0.085 -0.591 L 0.105 -0.591 Q 0.229 -0.591 0.306 -0.648 Q 0.315 -0.655 0.328 -0.655 Q 0.34600000000000003 -0.655 0.35000000000000003 -0.6485 Q 0.354 -0.642 0.354 -0.623 Z"/></g><g transform="translate(7.370398545654502,2.901195842105263)"><path fill="rgb(0,0,0)" stroke="none" paint-order="stroke fill markers" d=" M 0.199 -0.47900000000000004 L 0.34900000000000003 -0.395 Q 0.419 -0.441 0.419 -0.507 Q 0.419 -0.558 0.3835 -0.587 Q 0.34800000000000003 -0.616 0.28500000000000003 -0.616 Q 0.265 -0.616 0.247 -0.6135 Q 0.229 -0.611 0.20600000000000002 -0.604 Q 0.183 -0.597 0.169 -0.5805 Q 0.155 -0.5640000000000001 0.155 -0.539 Q 0.155 -0.504 0.199 -0.47900000000000004 M 0.393 -0.37 Q 0.42 -0.354 0.436 -0.3435 Q 0.452 -0.333 0.47650000000000003 -0.31 Q 0.501 -0.28700000000000003 0.5135 -0.256 Q 0.526 -0.225 0.526 -0.187 Q 0.526 -0.1 0.463 -0.0445 Q 0.4 0.011 0.28500000000000003 0.011 Q 0.181 0.011 0.1145 -0.032 Q 0.048 -0.075 0.048 -0.161 Q 0.048 -0.273 0.176 -0.329 Q 0.08 -0.383 0.08 -0.48 Q 0.08 -0.556 0.1345 -0.6055 Q 0.189 -0.655 0.289 -0.655 Q 0.38 -0.655 0.437 -0.618 Q 0.494 -0.581 0.494 -0.508 Q 0.494 -0.422 0.393 -0.37 M 0.222 -0.302 Q 0.134 -0.252 0.134 -0.161 Q 0.134 -0.10200000000000001 0.17500000000000002 -0.067 Q 0.216 -0.032 0.289 -0.032 Q 0.324 -0.032 0.3545 -0.0385 Q 0.385 -0.045 0.41250000000000003 -0.069 Q 0.44 -0.093 0.44 -0.132 Q 0.44 -0.155 0.4275 -0.17300000000000001 Q 0.41500000000000004 -0.191 0.4015 -0.2005 Q 0.388 -0.21 0.359 -0.226 Q 0.247 -0.289 0.222 -0.302 Z"/></g><g transform="translate(8.462487149788537,2.215244842105263)"><path fill="rgb(0,0,0)" stroke="none" paint-order="stroke fill markers" d=" M 0.536 -0.401 Q 0.516 -0.41600000000000004 0.488 -0.41600000000000004 Q 0.461 -0.41600000000000004 0.4375 -0.392 Q 0.41400000000000003 -0.368 0.403 -0.325 Q 0.4 -0.316 0.385 -0.257 Q 0.37 -0.198 0.368 -0.189 Q 0.34600000000000003 -0.099 0.34600000000000003 -0.078 Q 0.34600000000000003 -0.028 0.402 -0.028 Q 0.44 -0.028 0.482 -0.0575 Q 0.524 -0.08700000000000001 0.544 -0.149 Q 0.548 -0.162 0.5670000000000001 -0.162 Q 0.591 -0.162 0.591 -0.148 Q 0.591 -0.134 0.578 -0.1095 Q 0.5650000000000001 -0.085 0.542 -0.058 Q 0.519 -0.031 0.48 -0.0115 Q 0.441 0.008 0.397 0.008 Q 0.295 0.008 0.259 -0.053 Q 0.215 0.008 0.152 0.008 Q 0.105 0.008 0.07150000000000001 -0.0165 Q 0.038 -0.041 0.038 -0.08 Q 0.038 -0.115 0.06 -0.1365 Q 0.082 -0.158 0.11 -0.158 Q 0.133 -0.158 0.1465 -0.14400000000000002 Q 0.16 -0.13 0.16 -0.112 Q 0.16 -0.091 0.1455 -0.07050000000000001 Q 0.131 -0.05 0.106 -0.043000000000000003 Q 0.126 -0.028 0.154 -0.028 Q 0.181 -0.028 0.20450000000000002 -0.051500000000000004 Q 0.228 -0.075 0.23900000000000002 -0.11900000000000001 L 0.273 -0.256 Q 0.296 -0.34800000000000003 0.296 -0.366 Q 0.296 -0.41600000000000004 0.24 -0.41600000000000004 Q 0.202 -0.41600000000000004 0.16 -0.3865 Q 0.11800000000000001 -0.357 0.098 -0.295 Q 0.094 -0.28200000000000003 0.075 -0.28200000000000003 Q 0.051000000000000004 -0.28200000000000003 0.051000000000000004 -0.296 Q 0.051000000000000004 -0.31 0.064 -0.3345 Q 0.077 -0.359 0.1 -0.386 Q 0.123 -0.41300000000000003 0.162 -0.4325 Q 0.201 -0.452 0.245 -0.452 Q 0.34700000000000003 -0.452 0.383 -0.391 Q 0.427 -0.452 0.49 -0.452 Q 0.537 -0.452 0.5705 -0.4275 Q 0.604 -0.403 0.604 -0.364 Q 0.604 -0.329 0.582 -0.3075 Q 0.56 -0.28600000000000003 0.532 -0.28600000000000003 Q 0.509 -0.28600000000000003 0.4955 -0.3 Q 0.482 -0.314 0.482 -0.332 Q 0.482 -0.353 0.4965 -0.3735 Q 0.511 -0.394 0.536 -0.401 Z"/></g></g></g></g></svg>